<?xml version="1.0" standalone="no"?>
<!DOCTYPE svg PUBLIC "-//W3C//DTD SVG 1.1//EN" "http://www.w3.org/Graphics/SVG/1.1/DTD/svg11.dtd" >
<svg xmlns="http://www.w3.org/2000/svg">
<metadata>Generated by IcoMoon</metadata>
<defs>
<font id="icomoon" horiz-adv-x="1024">
<font-face units-per-em="1024" ascent="960" descent="-64" />
<missing-glyph horiz-adv-x="1024" />
<glyph unicode="&#x20;" horiz-adv-x="512" d="" />
<glyph unicode="&#xe900;" d="M426.667 708.267c0-25.6-21.333-42.667-42.667-42.667-25.6 0-42.667 21.333-42.667 42.667s21.333 42.667 42.667 42.667c21.333 0 42.667-21.333 42.667-42.667zM251.733 665.6c-25.6 0-42.667-21.333-42.667-42.667s21.333-42.667 42.667-42.667c25.6 0 42.667 21.333 42.667 42.667s-17.067 42.667-42.667 42.667zM512 708.267c25.6 0 42.667 21.333 42.667 42.667s-21.333 42.667-42.667 42.667c-25.6 0-42.667-21.333-42.667-42.667s21.333-42.667 42.667-42.667zM631.467 610.133c-4.267 0-12.8 0-12.8-4.267l-119.467-174.933c-38.4-4.267-68.267-38.4-68.267-76.8 0-42.667 34.133-81.067 81.067-81.067s81.067 34.133 81.067 81.067c0 17.067-4.267 34.133-17.067 46.933l59.733 196.267c4.267 4.267 0 12.8-4.267 12.8zM209.067 533.333c-25.6 0-42.667-21.333-42.667-42.667 0-25.6 21.333-42.667 42.667-42.667 25.6 0 42.667 21.333 42.667 42.667 0 25.6-17.067 42.667-42.667 42.667zM1024 448c0-281.6-230.4-512-512-512s-512 230.4-512 512 230.4 512 512 512c281.6 0 512-230.4 512-512zM913.067 448c0 221.867-179.2 401.067-401.067 401.067s-401.067-179.2-401.067-401.067c0-221.867 179.2-401.067 401.067-401.067s401.067 179.2 401.067 401.067zM814.933 533.333c-25.6 0-42.667-21.333-42.667-42.667 0-25.6 21.333-42.667 42.667-42.667 25.6 0 42.667 21.333 42.667 42.667 4.267 25.6-17.067 42.667-42.667 42.667zM814.933 618.667c0 25.6-21.333 42.667-42.667 42.667-25.6 0-42.667-21.333-42.667-42.667s21.333-42.667 42.667-42.667c25.6 0 42.667 21.333 42.667 42.667zM644.267 750.933c-25.6 0-42.667-21.333-42.667-42.667s21.333-42.667 42.667-42.667c25.6 0 42.667 21.333 42.667 42.667s-21.333 42.667-42.667 42.667z" />
<glyph unicode="&#xe901;" d="M631.467 230.4c-29.867-29.867-72.533-46.933-119.467-46.933s-89.6 17.067-119.467 46.933h-170.667c68.267-89.6 170.667-145.067 290.133-145.067s226.133 55.467 290.133 145.067h-170.667z" />
<glyph unicode="&#xe902;" d="M426.667 708.267c0-25.6-21.333-42.667-42.667-42.667-25.6 0-42.667 21.333-42.667 42.667s21.333 42.667 42.667 42.667c21.333 0 42.667-21.333 42.667-42.667zM251.733 665.6c-25.6 0-42.667-21.333-42.667-42.667s21.333-42.667 42.667-42.667c25.6 0 42.667 21.333 42.667 42.667s-17.067 42.667-42.667 42.667zM512 708.267c25.6 0 42.667 21.333 42.667 42.667s-21.333 42.667-42.667 42.667c-25.6 0-42.667-21.333-42.667-42.667s21.333-42.667 42.667-42.667zM631.467 610.133c-4.267 0-12.8 0-12.8-4.267l-119.467-174.933c-38.4-4.267-68.267-38.4-68.267-76.8 0-42.667 34.133-81.067 81.067-81.067s81.067 34.133 81.067 81.067c0 17.067-4.267 34.133-17.067 46.933l59.733 196.267c4.267 4.267 0 12.8-4.267 12.8zM209.067 533.333c-25.6 0-42.667-21.333-42.667-42.667 0-25.6 21.333-42.667 42.667-42.667 25.6 0 42.667 21.333 42.667 42.667 0 25.6-17.067 42.667-42.667 42.667zM1024 448c0-281.6-230.4-512-512-512s-512 230.4-512 512 230.4 512 512 512c281.6 0 512-230.4 512-512zM913.067 448c0 221.867-179.2 401.067-401.067 401.067s-401.067-179.2-401.067-401.067c0-221.867 179.2-401.067 401.067-401.067s401.067 179.2 401.067 401.067zM814.933 533.333c-25.6 0-42.667-21.333-42.667-42.667 0-25.6 21.333-42.667 42.667-42.667 25.6 0 42.667 21.333 42.667 42.667 4.267 25.6-17.067 42.667-42.667 42.667zM814.933 618.667c0 25.6-21.333 42.667-42.667 42.667-25.6 0-42.667-21.333-42.667-42.667s21.333-42.667 42.667-42.667c25.6 0 42.667 21.333 42.667 42.667zM644.267 750.933c-25.6 0-42.667-21.333-42.667-42.667s21.333-42.667 42.667-42.667c25.6 0 42.667 21.333 42.667 42.667s-21.333 42.667-42.667 42.667z" />
<glyph unicode="&#xe903;" d="M631.467 230.4c-29.867-29.867-72.533-46.933-119.467-46.933s-89.6 17.067-119.467 46.933h-170.667c68.267-89.6 170.667-145.067 290.133-145.067s226.133 55.467 290.133 145.067h-170.667z" />
<glyph unicode="&#xe904;" d="M426.667 708.267c0-25.6-21.333-42.667-42.667-42.667-25.6 0-42.667 21.333-42.667 42.667s21.333 42.667 42.667 42.667c21.333 0 42.667-21.333 42.667-42.667zM251.733 665.6c-25.6 0-42.667-21.333-42.667-42.667s21.333-42.667 42.667-42.667c25.6 0 42.667 21.333 42.667 42.667s-17.067 42.667-42.667 42.667zM512 708.267c25.6 0 42.667 21.333 42.667 42.667s-21.333 42.667-42.667 42.667c-25.6 0-42.667-21.333-42.667-42.667s21.333-42.667 42.667-42.667zM631.467 610.133c-4.267 0-12.8 0-12.8-4.267l-119.467-174.933c-38.4-4.267-68.267-38.4-68.267-76.8 0-42.667 34.133-81.067 81.067-81.067s81.067 34.133 81.067 81.067c0 17.067-4.267 34.133-17.067 46.933l59.733 196.267c4.267 4.267 0 12.8-4.267 12.8zM209.067 533.333c-25.6 0-42.667-21.333-42.667-42.667 0-25.6 21.333-42.667 42.667-42.667 25.6 0 42.667 21.333 42.667 42.667 0 25.6-17.067 42.667-42.667 42.667zM1024 448c0-281.6-230.4-512-512-512s-512 230.4-512 512 230.4 512 512 512c281.6 0 512-230.4 512-512zM913.067 448c0 221.867-179.2 401.067-401.067 401.067s-401.067-179.2-401.067-401.067c0-221.867 179.2-401.067 401.067-401.067s401.067 179.2 401.067 401.067zM814.933 533.333c-25.6 0-42.667-21.333-42.667-42.667 0-25.6 21.333-42.667 42.667-42.667 25.6 0 42.667 21.333 42.667 42.667 4.267 25.6-17.067 42.667-42.667 42.667zM814.933 618.667c0 25.6-21.333 42.667-42.667 42.667-25.6 0-42.667-21.333-42.667-42.667s21.333-42.667 42.667-42.667c25.6 0 42.667 21.333 42.667 42.667zM644.267 750.933c-25.6 0-42.667-21.333-42.667-42.667s21.333-42.667 42.667-42.667c25.6 0 42.667 21.333 42.667 42.667s-21.333 42.667-42.667 42.667z" />
<glyph unicode="&#xe905;" d="M631.467 230.4c-29.867-29.867-72.533-46.933-119.467-46.933s-89.6 17.067-119.467 46.933h-170.667c68.267-89.6 170.667-145.067 290.133-145.067s226.133 55.467 290.133 145.067h-170.667z" />
<glyph unicode="&#xe906;" glyph-name="my-products-default" horiz-adv-x="922" d="M785.067 776.533v38.4c0 81.067-64 145.067-145.067 145.067h-119.467c-38.4 0-72.533-17.067-98.133-38.4h-64c-81.067 0-145.067-64-145.067-145.067h-55.467l-157.867-162.133v-678.4h759.467l157.867 157.867v682.667h-132.267zM733.867 814.933v-38.4h-110.933c0 64-42.667 115.2-98.133 136.533h115.2c51.2 0 93.867-42.667 93.867-98.133zM264.533 614.4v81.067h311.467v-81.067h-311.467zM422.4 776.533v38.4c0 21.333 8.533 38.4 17.067 55.467h38.4c51.2 0 98.133-42.667 98.133-93.867h-153.6zM358.4 870.4h25.6c-4.267-17.067-8.533-34.133-8.533-55.467v-38.4h-110.933c0 51.2 42.667 93.867 93.867 93.867zM119.467 614.4l81.067 81.067h17.067v-81.067h-98.133zM738.133 614.4h-115.2v81.067h196.267l-81.067-81.067z" />
<glyph unicode="&#xe907;" glyph-name="my-products-hov" horiz-adv-x="922" d="M785.067 776.533v38.4c0 81.067-64 145.067-145.067 145.067h-119.467c-38.4 0-72.533-17.067-98.133-38.4h-64c-81.067 0-145.067-64-145.067-145.067h-55.467l-157.867-162.133v-678.4h759.467l157.867 157.867v682.667h-132.267zM733.867 814.933v-38.4h-110.933c0 64-42.667 115.2-98.133 136.533h115.2c51.2 0 93.867-42.667 93.867-98.133zM264.533 614.4v81.067h311.467v-81.067h-311.467zM422.4 776.533v38.4c0 21.333 8.533 38.4 17.067 55.467h38.4c51.2 0 98.133-42.667 98.133-93.867h-153.6zM358.4 870.4h25.6c-4.267-17.067-8.533-34.133-8.533-55.467v-38.4h-110.933c0 51.2 42.667 93.867 93.867 93.867zM119.467 614.4l81.067 81.067h17.067v-81.067h-98.133zM738.133 614.4h-115.2v81.067h196.267l-81.067-81.067z" />
<glyph unicode="&#xe908;" glyph-name="my-products-selected" horiz-adv-x="922" d="M785.067 776.533v38.4c0 81.067-64 145.067-145.067 145.067h-119.467c-38.4 0-72.533-17.067-98.133-38.4h-64c-81.067 0-145.067-64-145.067-145.067h-55.467l-157.867-162.133v-678.4h759.467l157.867 157.867v682.667h-132.267zM733.867 814.933v-38.4h-110.933c0 64-42.667 115.2-98.133 136.533h115.2c51.2 0 93.867-42.667 93.867-98.133zM264.533 614.4v81.067h311.467v-81.067h-311.467zM422.4 776.533v38.4c0 21.333 8.533 38.4 17.067 55.467h38.4c51.2 0 98.133-42.667 98.133-93.867h-153.6zM358.4 870.4h25.6c-4.267-17.067-8.533-34.133-8.533-55.467v-38.4h-110.933c0 51.2 42.667 93.867 93.867 93.867zM119.467 614.4l81.067 81.067h17.067v-81.067h-98.133zM738.133 614.4h-115.2v81.067h196.267l-81.067-81.067z" />
<glyph unicode="&#xe909;" glyph-name="my-work-default" horiz-adv-x="1382" d="M1382.4 908.8v-921.6c0-29.867-21.333-51.2-51.2-51.2h-1280c-29.867 0-51.2 21.333-51.2 51.2v921.6c0 29.867 21.333 51.2 51.2 51.2h1280c29.867 0 51.2-21.333 51.2-51.2zM1280 857.6h-1177.6v-819.2h1177.6v819.2zM307.2 166.4c0-12.8 12.8-25.6 25.6-25.6h716.8c12.8 0 25.6 12.8 25.6 25.6v102.4c0 12.8-12.8 25.6-25.6 25.6h-716.8c-12.8 0-25.6-12.8-25.6-25.6v-102.4zM460.8 473.6c0 12.8-12.8 25.6-25.6 25.6h-102.4c-12.8 0-25.6-12.8-25.6-25.6v-102.4c0-12.8 12.8-25.6 25.6-25.6h102.4c12.8 0 25.6 12.8 25.6 25.6v102.4zM870.4 473.6c0 12.8-12.8 25.6-25.6 25.6h-102.4c-12.8 0-25.6-12.8-25.6-25.6v-102.4c0-12.8 12.8-25.6 25.6-25.6h102.4c12.8 0 25.6 12.8 25.6 25.6v102.4zM665.6 473.6c0 12.8-12.8 25.6-25.6 25.6h-102.4c-12.8 0-25.6-12.8-25.6-25.6v-102.4c0-12.8 12.8-25.6 25.6-25.6h102.4c12.8 0 25.6 12.8 25.6 25.6v102.4zM1075.2 473.6c0 12.8-12.8 25.6-25.6 25.6h-102.4c-12.8 0-25.6-12.8-25.6-25.6v-102.4c0-12.8 12.8-25.6 25.6-25.6h102.4c12.8 0 25.6 12.8 25.6 25.6v102.4zM1177.6 678.4c0 12.8-12.8 25.6-25.6 25.6h-102.4c-12.8 0-25.6-12.8-25.6-25.6v-102.4c0-12.8 12.8-25.6 25.6-25.6h102.4c12.8 0 25.6 12.8 25.6 25.6v102.4zM358.4 678.4c0 12.8-12.8 25.6-25.6 25.6h-102.4c-12.8 0-25.6-12.8-25.6-25.6v-102.4c0-12.8 12.8-25.6 25.6-25.6h102.4c12.8 0 25.6 12.8 25.6 25.6v102.4zM768 678.4c0 12.8-12.8 25.6-25.6 25.6h-102.4c-12.8 0-25.6-12.8-25.6-25.6v-102.4c0-12.8 12.8-25.6 25.6-25.6h102.4c12.8 0 25.6 12.8 25.6 25.6v102.4zM563.2 678.4c0 12.8-12.8 25.6-25.6 25.6h-102.4c-12.8 0-25.6-12.8-25.6-25.6v-102.4c0-12.8 12.8-25.6 25.6-25.6h102.4c12.8 0 25.6 12.8 25.6 25.6v102.4zM972.8 678.4c0 12.8-12.8 25.6-25.6 25.6h-102.4c-12.8 0-25.6-12.8-25.6-25.6v-102.4c0-12.8 12.8-25.6 25.6-25.6h102.4c12.8 0 25.6 12.8 25.6 25.6v102.4zM435.2 755.2h-102.4c-12.8 0-25.6 12.8-25.6 25.6s12.8 25.6 25.6 25.6h102.4c12.8 0 25.6-12.8 25.6-25.6s-12.8-25.6-25.6-25.6zM640 755.2h-102.4c-12.8 0-25.6 12.8-25.6 25.6s12.8 25.6 25.6 25.6h102.4c12.8 0 25.6-12.8 25.6-25.6s-12.8-25.6-25.6-25.6zM844.8 755.2h-102.4c-12.8 0-25.6 12.8-25.6 25.6s12.8 25.6 25.6 25.6h102.4c12.8 0 25.6-12.8 25.6-25.6s-12.8-25.6-25.6-25.6zM1049.6 755.2h-102.4c-12.8 0-25.6 12.8-25.6 25.6s12.8 25.6 25.6 25.6h102.4c12.8 0 25.6-12.8 25.6-25.6s-12.8-25.6-25.6-25.6z" />
<glyph unicode="&#xe90a;" glyph-name="my-work-hov" horiz-adv-x="1382" d="M1382.4 908.8v-921.6c0-29.867-21.333-51.2-51.2-51.2h-1280c-29.867 0-51.2 21.333-51.2 51.2v921.6c0 29.867 21.333 51.2 51.2 51.2h1280c29.867 0 51.2-21.333 51.2-51.2zM1280 857.6h-1177.6v-819.2h1177.6v819.2zM307.2 166.4c0-12.8 12.8-25.6 25.6-25.6h716.8c12.8 0 25.6 12.8 25.6 25.6v102.4c0 12.8-12.8 25.6-25.6 25.6h-716.8c-12.8 0-25.6-12.8-25.6-25.6v-102.4zM460.8 473.6c0 12.8-12.8 25.6-25.6 25.6h-102.4c-12.8 0-25.6-12.8-25.6-25.6v-102.4c0-12.8 12.8-25.6 25.6-25.6h102.4c12.8 0 25.6 12.8 25.6 25.6v102.4zM870.4 473.6c0 12.8-12.8 25.6-25.6 25.6h-102.4c-12.8 0-25.6-12.8-25.6-25.6v-102.4c0-12.8 12.8-25.6 25.6-25.6h102.4c12.8 0 25.6 12.8 25.6 25.6v102.4zM665.6 473.6c0 12.8-12.8 25.6-25.6 25.6h-102.4c-12.8 0-25.6-12.8-25.6-25.6v-102.4c0-12.8 12.8-25.6 25.6-25.6h102.4c12.8 0 25.6 12.8 25.6 25.6v102.4zM1075.2 473.6c0 12.8-12.8 25.6-25.6 25.6h-102.4c-12.8 0-25.6-12.8-25.6-25.6v-102.4c0-12.8 12.8-25.6 25.6-25.6h102.4c12.8 0 25.6 12.8 25.6 25.6v102.4zM1177.6 678.4c0 12.8-12.8 25.6-25.6 25.6h-102.4c-12.8 0-25.6-12.8-25.6-25.6v-102.4c0-12.8 12.8-25.6 25.6-25.6h102.4c12.8 0 25.6 12.8 25.6 25.6v102.4zM358.4 678.4c0 12.8-12.8 25.6-25.6 25.6h-102.4c-12.8 0-25.6-12.8-25.6-25.6v-102.4c0-12.8 12.8-25.6 25.6-25.6h102.4c12.8 0 25.6 12.8 25.6 25.6v102.4zM768 678.4c0 12.8-12.8 25.6-25.6 25.6h-102.4c-12.8 0-25.6-12.8-25.6-25.6v-102.4c0-12.8 12.8-25.6 25.6-25.6h102.4c12.8 0 25.6 12.8 25.6 25.6v102.4zM563.2 678.4c0 12.8-12.8 25.6-25.6 25.6h-102.4c-12.8 0-25.6-12.8-25.6-25.6v-102.4c0-12.8 12.8-25.6 25.6-25.6h102.4c12.8 0 25.6 12.8 25.6 25.6v102.4zM972.8 678.4c0 12.8-12.8 25.6-25.6 25.6h-102.4c-12.8 0-25.6-12.8-25.6-25.6v-102.4c0-12.8 12.8-25.6 25.6-25.6h102.4c12.8 0 25.6 12.8 25.6 25.6v102.4zM435.2 755.2h-102.4c-12.8 0-25.6 12.8-25.6 25.6s12.8 25.6 25.6 25.6h102.4c12.8 0 25.6-12.8 25.6-25.6s-12.8-25.6-25.6-25.6zM640 755.2h-102.4c-12.8 0-25.6 12.8-25.6 25.6s12.8 25.6 25.6 25.6h102.4c12.8 0 25.6-12.8 25.6-25.6s-12.8-25.6-25.6-25.6zM844.8 755.2h-102.4c-12.8 0-25.6 12.8-25.6 25.6s12.8 25.6 25.6 25.6h102.4c12.8 0 25.6-12.8 25.6-25.6s-12.8-25.6-25.6-25.6zM1049.6 755.2h-102.4c-12.8 0-25.6 12.8-25.6 25.6s12.8 25.6 25.6 25.6h102.4c12.8 0 25.6-12.8 25.6-25.6s-12.8-25.6-25.6-25.6z" />
<glyph unicode="&#xe90b;" glyph-name="my-work-selected" horiz-adv-x="1382" d="M1382.4 908.8v-921.6c0-29.867-21.333-51.2-51.2-51.2h-1280c-29.867 0-51.2 21.333-51.2 51.2v921.6c0 29.867 21.333 51.2 51.2 51.2h1280c29.867 0 51.2-21.333 51.2-51.2zM1280 857.6h-1177.6v-819.2h1177.6v819.2zM307.2 166.4c0-12.8 12.8-25.6 25.6-25.6h716.8c12.8 0 25.6 12.8 25.6 25.6v102.4c0 12.8-12.8 25.6-25.6 25.6h-716.8c-12.8 0-25.6-12.8-25.6-25.6v-102.4zM460.8 473.6c0 12.8-12.8 25.6-25.6 25.6h-102.4c-12.8 0-25.6-12.8-25.6-25.6v-102.4c0-12.8 12.8-25.6 25.6-25.6h102.4c12.8 0 25.6 12.8 25.6 25.6v102.4zM870.4 473.6c0 12.8-12.8 25.6-25.6 25.6h-102.4c-12.8 0-25.6-12.8-25.6-25.6v-102.4c0-12.8 12.8-25.6 25.6-25.6h102.4c12.8 0 25.6 12.8 25.6 25.6v102.4zM665.6 473.6c0 12.8-12.8 25.6-25.6 25.6h-102.4c-12.8 0-25.6-12.8-25.6-25.6v-102.4c0-12.8 12.8-25.6 25.6-25.6h102.4c12.8 0 25.6 12.8 25.6 25.6v102.4zM1075.2 473.6c0 12.8-12.8 25.6-25.6 25.6h-102.4c-12.8 0-25.6-12.8-25.6-25.6v-102.4c0-12.8 12.8-25.6 25.6-25.6h102.4c12.8 0 25.6 12.8 25.6 25.6v102.4zM1177.6 678.4c0 12.8-12.8 25.6-25.6 25.6h-102.4c-12.8 0-25.6-12.8-25.6-25.6v-102.4c0-12.8 12.8-25.6 25.6-25.6h102.4c12.8 0 25.6 12.8 25.6 25.6v102.4zM358.4 678.4c0 12.8-12.8 25.6-25.6 25.6h-102.4c-12.8 0-25.6-12.8-25.6-25.6v-102.4c0-12.8 12.8-25.6 25.6-25.6h102.4c12.8 0 25.6 12.8 25.6 25.6v102.4zM768 678.4c0 12.8-12.8 25.6-25.6 25.6h-102.4c-12.8 0-25.6-12.8-25.6-25.6v-102.4c0-12.8 12.8-25.6 25.6-25.6h102.4c12.8 0 25.6 12.8 25.6 25.6v102.4zM563.2 678.4c0 12.8-12.8 25.6-25.6 25.6h-102.4c-12.8 0-25.6-12.8-25.6-25.6v-102.4c0-12.8 12.8-25.6 25.6-25.6h102.4c12.8 0 25.6 12.8 25.6 25.6v102.4zM972.8 678.4c0 12.8-12.8 25.6-25.6 25.6h-102.4c-12.8 0-25.6-12.8-25.6-25.6v-102.4c0-12.8 12.8-25.6 25.6-25.6h102.4c12.8 0 25.6 12.8 25.6 25.6v102.4zM435.2 755.2h-102.4c-12.8 0-25.6 12.8-25.6 25.6s12.8 25.6 25.6 25.6h102.4c12.8 0 25.6-12.8 25.6-25.6s-12.8-25.6-25.6-25.6zM640 755.2h-102.4c-12.8 0-25.6 12.8-25.6 25.6s12.8 25.6 25.6 25.6h102.4c12.8 0 25.6-12.8 25.6-25.6s-12.8-25.6-25.6-25.6zM844.8 755.2h-102.4c-12.8 0-25.6 12.8-25.6 25.6s12.8 25.6 25.6 25.6h102.4c12.8 0 25.6-12.8 25.6-25.6s-12.8-25.6-25.6-25.6zM1049.6 755.2h-102.4c-12.8 0-25.6 12.8-25.6 25.6s12.8 25.6 25.6 25.6h102.4c12.8 0 25.6-12.8 25.6-25.6s-12.8-25.6-25.6-25.6z" />
<glyph unicode="&#xe90c;" glyph-name="save-default" d="M746.667 776.533h-93.867v183.467h93.867v-183.467zM840.533 960h-46.933v-234.667h-558.933v234.667h-187.733c-25.6 0-46.933-21.333-46.933-46.933v-930.133c0-25.6 21.333-46.933 46.933-46.933h93.867v465.067h746.667v-465.067h93.867c25.6 0 46.933 21.333 46.933 46.933v793.6l-187.733 183.467z" />
<glyph unicode="&#xe90d;" glyph-name="save-hov" d="M746.667 776.533h-93.867v183.467h93.867v-183.467zM840.533 960h-46.933v-234.667h-558.933v234.667h-187.733c-25.6 0-46.933-21.333-46.933-46.933v-930.133c0-25.6 21.333-46.933 46.933-46.933h93.867v465.067h746.667v-465.067h93.867c25.6 0 46.933 21.333 46.933 46.933v793.6l-187.733 183.467z" />
<glyph unicode="&#xe90e;" glyph-name="save-selected" d="M746.667 776.533h-93.867v183.467h93.867v-183.467zM840.533 960h-46.933v-234.667h-558.933v234.667h-187.733c-25.6 0-46.933-21.333-46.933-46.933v-930.133c0-25.6 21.333-46.933 46.933-46.933h93.867v465.067h746.667v-465.067h93.867c25.6 0 46.933 21.333 46.933 46.933v793.6l-187.733 183.467z" />
<glyph unicode="&#xe90f;" glyph-name="search-default" d="M1019.733 68.267l-256 256c42.667 64 68.267 140.8 68.267 221.867 0 226.133-187.733 413.867-413.867 413.867-230.4 0-418.133-183.467-418.133-413.867 0-226.133 183.467-413.867 413.867-413.867 81.067 0 157.867 25.6 221.867 68.267l256-256c8.533-8.533 21.333-8.533 29.867 0l93.867 93.867c12.8 8.533 12.8 21.333 4.267 29.867zM132.267 546.133c0 157.867 128 285.867 281.6 285.867s281.6-128 281.6-281.6c0-153.6-128-281.6-281.6-281.6-153.6-4.267-281.6 123.733-281.6 277.333z" />
<glyph unicode="&#xe910;" glyph-name="search-hov" d="M1019.733 68.267l-256 256c42.667 64 68.267 140.8 68.267 221.867 0 226.133-187.733 413.867-413.867 413.867-230.4 0-418.133-183.467-418.133-413.867 0-226.133 183.467-413.867 413.867-413.867 81.067 0 157.867 25.6 221.867 68.267l256-256c8.533-8.533 21.333-8.533 29.867 0l93.867 93.867c12.8 8.533 12.8 21.333 4.267 29.867zM132.267 546.133c0 157.867 128 285.867 281.6 285.867s281.6-128 281.6-281.6c0-153.6-128-281.6-281.6-281.6-153.6-4.267-281.6 123.733-281.6 277.333z" />
<glyph unicode="&#xe911;" glyph-name="search-selected" d="M1019.733 68.267l-256 256c42.667 64 68.267 140.8 68.267 221.867 0 226.133-187.733 413.867-413.867 413.867-230.4 0-418.133-183.467-418.133-413.867 0-226.133 183.467-413.867 413.867-413.867 81.067 0 157.867 25.6 221.867 68.267l256-256c8.533-8.533 21.333-8.533 29.867 0l93.867 93.867c12.8 8.533 12.8 21.333 4.267 29.867zM132.267 546.133c0 157.867 128 285.867 281.6 285.867s281.6-128 281.6-281.6c0-153.6-128-281.6-281.6-281.6-153.6-4.267-281.6 123.733-281.6 277.333z" />
<glyph unicode="&#xe912;" glyph-name="subscription-default" d="M486.4-64h-128c0 93.867-34.133 183.467-106.667 256-68.267 68.267-162.133 102.4-251.733 106.667v128c123.733 0 247.467-46.933 345.6-140.8 93.867-98.133 140.8-226.133 140.8-349.867zM162.133 98.133c-42.667 42.667-102.4 68.267-162.133 68.267v-230.4h226.133c0 59.733-21.333 119.467-64 162.133zM0 960v-132.267c226.133 0 456.533-85.333 627.2-260.267 174.933-174.933 260.267-401.067 260.267-631.467h132.267c0 264.533-98.133 524.8-298.667 725.333-196.267 200.533-460.8 298.667-721.067 298.667zM537.6 473.6c-149.333 149.333-341.333 221.867-537.6 221.867v-140.8c157.867 0 315.733-59.733 435.2-179.2s179.2-277.333 179.2-439.467h140.8c4.267 196.267-68.267 388.267-217.6 537.6z" />
<glyph unicode="&#xe913;" glyph-name="subscription-hov" d="M486.4-64h-128c0 93.867-34.133 183.467-106.667 256-68.267 68.267-162.133 102.4-251.733 106.667v128c123.733 0 247.467-46.933 345.6-140.8 93.867-98.133 140.8-226.133 140.8-349.867zM162.133 98.133c-42.667 42.667-102.4 68.267-162.133 68.267v-230.4h226.133c0 59.733-21.333 119.467-64 162.133zM0 960v-132.267c226.133 0 456.533-85.333 627.2-260.267 174.933-174.933 260.267-401.067 260.267-631.467h132.267c0 264.533-98.133 524.8-298.667 725.333-196.267 200.533-460.8 298.667-721.067 298.667zM537.6 473.6c-149.333 149.333-341.333 221.867-537.6 221.867v-140.8c157.867 0 315.733-59.733 435.2-179.2s179.2-277.333 179.2-439.467h140.8c4.267 196.267-68.267 388.267-217.6 537.6z" />
<glyph unicode="&#xe914;" glyph-name="subscription-selected" d="M486.4-64h-128c0 93.867-34.133 183.467-106.667 256-68.267 68.267-162.133 102.4-251.733 106.667v128c123.733 0 247.467-46.933 345.6-140.8 93.867-98.133 140.8-226.133 140.8-349.867zM162.133 98.133c-42.667 42.667-102.4 68.267-162.133 68.267v-230.4h226.133c0 59.733-21.333 119.467-64 162.133zM0 960v-132.267c226.133 0 456.533-85.333 627.2-260.267 174.933-174.933 260.267-401.067 260.267-631.467h132.267c0 264.533-98.133 524.8-298.667 725.333-196.267 200.533-460.8 298.667-721.067 298.667zM537.6 473.6c-149.333 149.333-341.333 221.867-537.6 221.867v-140.8c157.867 0 315.733-59.733 435.2-179.2s179.2-277.333 179.2-439.467h140.8c4.267 196.267-68.267 388.267-217.6 537.6z" />
<glyph unicode="&#xe915;" glyph-name="summary-dashb-default" horiz-adv-x="1207" d="M750.933 435.2l324.267 324.267c179.2-179.2 179.2-469.333 0-648.533l-324.267 324.267zM708.267 396.8v-460.8c123.733 0 234.667 46.933 324.267 136.533l-324.267 324.267zM669.867 891.733c-17.067 0-38.4 0-55.467-4.267 38.4-59.733 59.733-132.267 59.733-204.8 0-217.6-174.933-392.533-392.533-392.533-12.8 0-29.867 0-42.667 4.267 59.733-183.467 234.667-315.733 435.2-315.733v456.533l324.267 324.267c-89.6 81.067-204.8 132.267-328.533 132.267zM277.333 960c-153.6 0-277.333-123.733-277.333-277.333s123.733-277.333 277.333-277.333 277.333 123.733 277.333 277.333-119.467 277.333-277.333 277.333zM418.133 482.133h-264.533c-4.267 0-8.533 4.267-8.533 8.533v59.733c0 0 0 4.267 0 4.267l102.4 119.467c8.533 0 8.533 8.533 4.267 8.533l-98.133 115.2c0 0 0 4.267 0 4.267v59.733c0 4.267 4.267 8.533 8.533 8.533h251.733c4.267 0 8.533-4.267 8.533-8.533v-72.533c0-4.267-4.267-8.533-8.533-8.533h-98.133c-8.533 0-12.8-8.533-4.267-12.8l72.533-85.333c0-4.267 0-8.533 0-8.533l-72.533-85.333c-4.267-4.267 0-12.8 4.267-12.8h102.4c4.267 0 8.533-4.267 8.533-8.533v-76.8c0-4.267-4.267-8.533-8.533-8.533z" />
<glyph unicode="&#xe916;" glyph-name="summary-dashb-hov" horiz-adv-x="1207" d="M750.933 435.2l324.267 324.267c179.2-179.2 179.2-469.333 0-648.533l-324.267 324.267zM708.267 396.8v-460.8c123.733 0 234.667 46.933 324.267 136.533l-324.267 324.267zM669.867 891.733c-17.067 0-38.4 0-55.467-4.267 38.4-59.733 59.733-132.267 59.733-204.8 0-217.6-174.933-392.533-392.533-392.533-12.8 0-29.867 0-42.667 4.267 59.733-183.467 234.667-315.733 435.2-315.733v456.533l324.267 324.267c-89.6 81.067-204.8 132.267-328.533 132.267zM277.333 960c-153.6 0-277.333-123.733-277.333-277.333s123.733-277.333 277.333-277.333 277.333 123.733 277.333 277.333-119.467 277.333-277.333 277.333zM418.133 482.133h-264.533c-4.267 0-8.533 4.267-8.533 8.533v59.733c0 0 0 4.267 0 4.267l102.4 119.467c8.533 0 8.533 8.533 4.267 8.533l-98.133 115.2c0 0 0 4.267 0 4.267v59.733c0 4.267 4.267 8.533 8.533 8.533h251.733c4.267 0 8.533-4.267 8.533-8.533v-72.533c0-4.267-4.267-8.533-8.533-8.533h-98.133c-8.533 0-12.8-8.533-4.267-12.8l72.533-85.333c0-4.267 0-8.533 0-8.533l-72.533-85.333c-4.267-4.267 0-12.8 4.267-12.8h102.4c4.267 0 8.533-4.267 8.533-8.533v-76.8c0-4.267-4.267-8.533-8.533-8.533z" />
<glyph unicode="&#xe917;" glyph-name="summary-dashb-selected" horiz-adv-x="1207" d="M750.933 435.2l324.267 324.267c179.2-179.2 179.2-469.333 0-648.533l-324.267 324.267zM708.267 396.8v-460.8c123.733 0 234.667 46.933 324.267 136.533l-324.267 324.267zM669.867 891.733c-17.067 0-38.4 0-55.467-4.267 38.4-59.733 59.733-132.267 59.733-204.8 0-217.6-174.933-392.533-392.533-392.533-12.8 0-29.867 0-42.667 4.267 59.733-183.467 234.667-315.733 435.2-315.733v456.533l324.267 324.267c-89.6 81.067-204.8 132.267-328.533 132.267zM277.333 960c-153.6 0-277.333-123.733-277.333-277.333s123.733-277.333 277.333-277.333 277.333 123.733 277.333 277.333-119.467 277.333-277.333 277.333zM418.133 482.133h-264.533c-4.267 0-8.533 4.267-8.533 8.533v59.733c0 0 0 4.267 0 4.267l102.4 119.467c8.533 0 8.533 8.533 4.267 8.533l-98.133 115.2c0 0 0 4.267 0 4.267v59.733c0 4.267 4.267 8.533 8.533 8.533h251.733c4.267 0 8.533-4.267 8.533-8.533v-72.533c0-4.267-4.267-8.533-8.533-8.533h-98.133c-8.533 0-12.8-8.533-4.267-12.8l72.533-85.333c0-4.267 0-8.533 0-8.533l-72.533-85.333c-4.267-4.267 0-12.8 4.267-12.8h102.4c4.267 0 8.533-4.267 8.533-8.533v-76.8c0-4.267-4.267-8.533-8.533-8.533z" />
<glyph unicode="&#xe918;" glyph-name="ticker-default" horiz-adv-x="1203" d="M320 443.733c0-89.6-72.533-162.133-157.867-162.133-89.6 0-157.867 72.533-157.867 162.133s72.533 162.133 157.867 162.133c85.333 4.267 157.867-68.267 157.867-162.133zM601.6 610.133c-89.6 0-157.867-72.533-157.867-162.133s72.533-162.133 157.867-162.133c89.6 0 157.867 72.533 157.867 162.133s-68.267 162.133-157.867 162.133zM1041.067 610.133c-89.6 0-157.867-72.533-157.867-162.133s72.533-162.133 157.867-162.133c89.6 0 157.867 72.533 157.867 162.133 4.267 89.6-68.267 162.133-157.867 162.133zM1041.067 238.933c-17.067 0-34.133 4.267-51.2 8.533v-140.8c0-29.867-25.6-55.467-55.467-55.467h-661.333c-29.867 0-55.467 25.6-55.467 55.467v140.8c-17.067-4.267-38.4-8.533-55.467-8.533s-38.4 4.267-55.467 8.533v-85.333c0-123.733 98.133-226.133 221.867-226.133h554.667c123.733 0 221.867 102.4 221.867 226.133v85.333c-21.333-4.267-42.667-8.533-64-8.533zM157.867 648.533c21.333 0 38.4-4.267 55.467-8.533v149.333c0 29.867 25.6 55.467 55.467 55.467h665.6c29.867 0 55.467-25.6 55.467-55.467v-145.067c17.067 4.267 34.133 8.533 51.2 8.533 21.333 0 38.4-4.267 59.733-8.533v89.6c0 123.733-98.133 226.133-221.867 226.133h-554.667c-119.467 0-217.6-102.4-217.6-226.133v-89.6c17.067 4.267 34.133 4.267 51.2 4.267z" />
<glyph unicode="&#xe919;" glyph-name="ticker-hov" horiz-adv-x="1203" d="M320 443.733c0-89.6-72.533-162.133-157.867-162.133-89.6 0-157.867 72.533-157.867 162.133s72.533 162.133 157.867 162.133c85.333 4.267 157.867-68.267 157.867-162.133zM601.6 610.133c-89.6 0-157.867-72.533-157.867-162.133s72.533-162.133 157.867-162.133c89.6 0 157.867 72.533 157.867 162.133s-68.267 162.133-157.867 162.133zM1041.067 610.133c-89.6 0-157.867-72.533-157.867-162.133s72.533-162.133 157.867-162.133c89.6 0 157.867 72.533 157.867 162.133 4.267 89.6-68.267 162.133-157.867 162.133zM1041.067 238.933c-17.067 0-34.133 4.267-51.2 8.533v-140.8c0-29.867-25.6-55.467-55.467-55.467h-661.333c-29.867 0-55.467 25.6-55.467 55.467v140.8c-17.067-4.267-38.4-8.533-55.467-8.533s-38.4 4.267-55.467 8.533v-85.333c0-123.733 98.133-226.133 221.867-226.133h554.667c123.733 0 221.867 102.4 221.867 226.133v85.333c-21.333-4.267-42.667-8.533-64-8.533zM157.867 648.533c21.333 0 38.4-4.267 55.467-8.533v149.333c0 29.867 25.6 55.467 55.467 55.467h665.6c29.867 0 55.467-25.6 55.467-55.467v-145.067c17.067 4.267 34.133 8.533 51.2 8.533 21.333 0 38.4-4.267 59.733-8.533v89.6c0 123.733-98.133 226.133-221.867 226.133h-554.667c-119.467 0-217.6-102.4-217.6-226.133v-89.6c17.067 4.267 34.133 4.267 51.2 4.267z" />
<glyph unicode="&#xe91a;" glyph-name="ticker-selected" horiz-adv-x="1203" d="M320 443.733c0-89.6-72.533-162.133-157.867-162.133-89.6 0-157.867 72.533-157.867 162.133s72.533 162.133 157.867 162.133c85.333 4.267 157.867-68.267 157.867-162.133zM601.6 610.133c-89.6 0-157.867-72.533-157.867-162.133s72.533-162.133 157.867-162.133c89.6 0 157.867 72.533 157.867 162.133s-68.267 162.133-157.867 162.133zM1041.067 610.133c-89.6 0-157.867-72.533-157.867-162.133s72.533-162.133 157.867-162.133c89.6 0 157.867 72.533 157.867 162.133 4.267 89.6-68.267 162.133-157.867 162.133zM1041.067 238.933c-17.067 0-34.133 4.267-51.2 8.533v-140.8c0-29.867-25.6-55.467-55.467-55.467h-661.333c-29.867 0-55.467 25.6-55.467 55.467v140.8c-17.067-4.267-38.4-8.533-55.467-8.533s-38.4 4.267-55.467 8.533v-85.333c0-123.733 98.133-226.133 221.867-226.133h554.667c123.733 0 221.867 102.4 221.867 226.133v85.333c-21.333-4.267-42.667-8.533-64-8.533zM157.867 648.533c21.333 0 38.4-4.267 55.467-8.533v149.333c0 29.867 25.6 55.467 55.467 55.467h665.6c29.867 0 55.467-25.6 55.467-55.467v-145.067c17.067 4.267 34.133 8.533 51.2 8.533 21.333 0 38.4-4.267 59.733-8.533v89.6c0 123.733-98.133 226.133-221.867 226.133h-554.667c-119.467 0-217.6-102.4-217.6-226.133v-89.6c17.067 4.267 34.133 4.267 51.2 4.267z" />
<glyph unicode="&#xe91b;" glyph-name="transfer-default" horiz-adv-x="798" d="M443.733-55.467v166.4h-273.067c-8.533 0-17.067 8.533-17.067 17.067v162.133c0 8.533 8.533 17.067 17.067 17.067h273.067v166.4c0 8.533 4.267 12.8 12.8 4.267l337.067-260.267c8.533-4.267 8.533-12.8 0-21.333l-337.067-260.267c-8.533-4.267-12.8 0-12.8 8.533zM354.133 951.467v-166.4h273.067c8.533 0 17.067-8.533 17.067-17.067v-162.133c0-8.533-8.533-17.067-17.067-17.067h-273.067v-166.4c0-8.533-4.267-12.8-12.8-4.267l-337.067 260.267c-4.267 4.267-4.267 12.8 0 21.333l337.067 256c4.267 8.533 12.8 4.267 12.8-4.267z" />
<glyph unicode="&#xe91c;" glyph-name="transfer-hov" horiz-adv-x="798" d="M443.733-55.467v166.4h-273.067c-8.533 0-17.067 8.533-17.067 17.067v162.133c0 8.533 8.533 17.067 17.067 17.067h273.067v166.4c0 8.533 4.267 12.8 12.8 4.267l337.067-260.267c8.533-4.267 8.533-12.8 0-21.333l-337.067-260.267c-8.533-4.267-12.8 0-12.8 8.533zM354.133 951.467v-166.4h273.067c8.533 0 17.067-8.533 17.067-17.067v-162.133c0-8.533-8.533-17.067-17.067-17.067h-273.067v-166.4c0-8.533-4.267-12.8-12.8-4.267l-337.067 260.267c-4.267 4.267-4.267 12.8 0 21.333l337.067 256c4.267 8.533 12.8 4.267 12.8-4.267z" />
<glyph unicode="&#xe91d;" glyph-name="transfer-selected" horiz-adv-x="798" d="M443.733-55.467v166.4h-273.067c-8.533 0-17.067 8.533-17.067 17.067v162.133c0 8.533 8.533 17.067 17.067 17.067h273.067v166.4c0 8.533 4.267 12.8 12.8 4.267l337.067-260.267c8.533-4.267 8.533-12.8 0-21.333l-337.067-260.267c-8.533-4.267-12.8 0-12.8 8.533zM354.133 951.467v-166.4h273.067c8.533 0 17.067-8.533 17.067-17.067v-162.133c0-8.533-8.533-17.067-17.067-17.067h-273.067v-166.4c0-8.533-4.267-12.8-12.8-4.267l-337.067 260.267c-4.267 4.267-4.267 12.8 0 21.333l337.067 256c4.267 8.533 12.8 4.267 12.8-4.267z" />
<glyph unicode="&#xe91e;" glyph-name="user-default" d="M981.333 157.867c-29.867 17.067-217.6 132.267-311.467 174.933v174.933c29.867 21.333 42.667 55.467 42.667 102.4v140.8c0 115.2-68.267 209.067-200.533 209.067s-200.533-93.867-200.533-209.067c0 0 0-21.333 0-140.8 0-51.2 17.067-81.067 42.667-102.4v-174.933c-89.6-42.667-281.6-157.867-311.467-174.933-34.133-21.333-42.667-42.667-42.667-89.6 0-21.333 0-110.933 0-110.933 0-12.8 8.533-21.333 21.333-21.333h981.333c12.8 0 21.333 8.533 21.333 21.333 0 0 0 89.6 0 110.933 0 51.2-8.533 68.267-42.667 89.6z" />
<glyph unicode="&#xe91f;" glyph-name="user-hov" d="M981.333 157.867c-29.867 17.067-217.6 132.267-311.467 174.933v174.933c29.867 21.333 42.667 55.467 42.667 102.4v140.8c0 115.2-68.267 209.067-200.533 209.067s-200.533-93.867-200.533-209.067c0 0 0-21.333 0-140.8 0-51.2 17.067-81.067 42.667-102.4v-174.933c-89.6-42.667-281.6-157.867-311.467-174.933-34.133-21.333-42.667-42.667-42.667-89.6 0-21.333 0-110.933 0-110.933 0-12.8 8.533-21.333 21.333-21.333h981.333c12.8 0 21.333 8.533 21.333 21.333 0 0 0 89.6 0 110.933 0 51.2-8.533 68.267-42.667 89.6z" />
<glyph unicode="&#xe920;" glyph-name="user-selected" d="M981.333 157.867c-29.867 17.067-217.6 132.267-311.467 174.933v174.933c29.867 21.333 42.667 55.467 42.667 102.4v140.8c0 115.2-68.267 209.067-200.533 209.067s-200.533-93.867-200.533-209.067c0 0 0-21.333 0-140.8 0-51.2 17.067-81.067 42.667-102.4v-174.933c-89.6-42.667-281.6-157.867-311.467-174.933-34.133-21.333-42.667-42.667-42.667-89.6 0-21.333 0-110.933 0-110.933 0-12.8 8.533-21.333 21.333-21.333h981.333c12.8 0 21.333 8.533 21.333 21.333 0 0 0 89.6 0 110.933 0 51.2-8.533 68.267-42.667 89.6z" />
<glyph unicode="&#xe921;" glyph-name="apps-default" d="M947.2 947.2l-917.333-576c-42.667-25.6-38.4-42.667 12.8-42.667h315.733v-349.867c0-51.2 21.333-59.733 55.467-21.333l217.6 281.6 315.733-192c42.667-25.6 76.8-4.267 76.8 42.667v814.933c0 51.2-38.4 68.267-76.8 42.667zM443.733 136.533v179.2l529.067 588.8-529.067-768z" />
<glyph unicode="&#xe922;" glyph-name="apps-hov" d="M947.2 947.2l-917.333-576c-42.667-25.6-38.4-42.667 12.8-42.667h315.733v-349.867c0-51.2 21.333-59.733 55.467-21.333l217.6 281.6 315.733-192c42.667-25.6 76.8-4.267 76.8 42.667v814.933c0 51.2-38.4 68.267-76.8 42.667zM443.733 136.533v179.2l529.067 588.8-529.067-768z" />
<glyph unicode="&#xe923;" glyph-name="apps-selected" d="M947.2 947.2l-917.333-576c-42.667-25.6-38.4-42.667 12.8-42.667h315.733v-349.867c0-51.2 21.333-59.733 55.467-21.333l217.6 281.6 315.733-192c42.667-25.6 76.8-4.267 76.8 42.667v814.933c0 51.2-38.4 68.267-76.8 42.667zM443.733 136.533v179.2l529.067 588.8-529.067-768z" />
<glyph unicode="&#xe924;" glyph-name="cart-default" horiz-adv-x="1135" d="M1092.267 960h-110.933c-21.333 0-38.4-12.8-42.667-34.133l-34.133-145.067h-861.867c-12.8 0-25.6-4.267-34.133-17.067-8.533-8.533-8.533-21.333-8.533-34.133l89.6-401.067c4.267-21.333 21.333-34.133 42.667-34.133h652.8l-42.667-179.2h-541.867c-25.6 0-42.667-21.333-42.667-42.667 0-25.6 21.333-42.667 42.667-42.667h46.933c-4.267-8.533-4.267-12.8-4.267-21.333 0-38.4 29.867-68.267 68.267-68.267s68.267 29.867 68.267 68.267c0 8.533 0 17.067-4.267 21.333h230.4c-4.267-8.533-4.267-12.8-4.267-21.333 0-38.4 29.867-68.267 68.267-68.267s68.267 29.867 68.267 68.267c0 8.533 0 17.067-4.267 21.333h46.933c21.333 0 38.4 21.333 42.667 42.667v0l192 802.133h76.8c25.6 0 42.667 21.333 42.667 42.667s-21.333 42.667-42.667 42.667zM157.867 469.333h-8.533l-8.533 42.667h17.067v-42.667zM157.867 558.933h-29.867l-8.533 42.667h34.133v-42.667zM157.867 648.533h-46.933l-8.533 42.667h55.467v-42.667zM243.2 379.733h-42.667v42.667h42.667v-42.667zM243.2 469.333h-42.667v42.667h42.667v-42.667zM243.2 558.933h-42.667v42.667h42.667v-42.667zM243.2 648.533h-42.667v42.667h42.667v-42.667zM332.8 379.733h-42.667v42.667h42.667v-42.667zM332.8 469.333h-42.667v42.667h42.667v-42.667zM332.8 558.933h-42.667v42.667h42.667v-42.667zM332.8 648.533h-42.667v42.667h42.667v-42.667zM422.4 379.733h-42.667v42.667h42.667v-42.667zM422.4 469.333h-42.667v42.667h42.667v-42.667zM422.4 558.933h-42.667v42.667h42.667v-42.667zM422.4 648.533h-42.667v42.667h42.667v-42.667zM512 379.733h-42.667v42.667h42.667v-42.667zM512 469.333h-42.667v42.667h42.667v-42.667zM512 558.933h-42.667v42.667h42.667v-42.667zM512 648.533h-42.667v42.667h42.667v-42.667zM601.6 379.733h-42.667v42.667h42.667v-42.667zM601.6 469.333h-42.667v42.667h42.667v-42.667zM601.6 558.933h-42.667v42.667h42.667v-42.667zM601.6 648.533h-42.667v42.667h42.667v-42.667zM691.2 379.733h-42.667v42.667h42.667v-42.667zM691.2 469.333h-42.667v42.667h42.667v-42.667zM691.2 558.933h-42.667v42.667h42.667v-42.667zM691.2 648.533h-42.667v42.667h42.667v-42.667zM780.8 379.733h-42.667v42.667h42.667v-42.667zM780.8 469.333h-42.667v42.667h42.667v-42.667zM780.8 558.933h-42.667v42.667h42.667v-42.667zM780.8 648.533h-42.667v42.667h42.667v-42.667zM827.733 469.333h-4.267v42.667h17.067l-12.8-42.667zM849.067 558.933h-25.6v42.667h34.133l-8.533-42.667zM870.4 648.533h-46.933v42.667h55.467l-8.533-42.667z" />
<glyph unicode="&#xe925;" glyph-name="cart-hov" horiz-adv-x="1135" d="M1092.267 960h-110.933c-21.333 0-38.4-12.8-42.667-34.133l-34.133-145.067h-861.867c-12.8 0-25.6-4.267-34.133-17.067-8.533-8.533-8.533-21.333-8.533-34.133l89.6-401.067c4.267-21.333 21.333-34.133 42.667-34.133h652.8l-42.667-179.2h-541.867c-25.6 0-42.667-21.333-42.667-42.667 0-25.6 21.333-42.667 42.667-42.667h46.933c-4.267-8.533-4.267-12.8-4.267-21.333 0-38.4 29.867-68.267 68.267-68.267s68.267 29.867 68.267 68.267c0 8.533 0 17.067-4.267 21.333h230.4c-4.267-8.533-4.267-12.8-4.267-21.333 0-38.4 29.867-68.267 68.267-68.267s68.267 29.867 68.267 68.267c0 8.533 0 17.067-4.267 21.333h46.933c21.333 0 38.4 21.333 42.667 42.667v0l192 802.133h76.8c25.6 0 42.667 21.333 42.667 42.667s-21.333 42.667-42.667 42.667zM157.867 469.333h-8.533l-8.533 42.667h17.067v-42.667zM157.867 558.933h-29.867l-8.533 42.667h34.133v-42.667zM157.867 648.533h-46.933l-8.533 42.667h55.467v-42.667zM243.2 379.733h-42.667v42.667h42.667v-42.667zM243.2 469.333h-42.667v42.667h42.667v-42.667zM243.2 558.933h-42.667v42.667h42.667v-42.667zM243.2 648.533h-42.667v42.667h42.667v-42.667zM332.8 379.733h-42.667v42.667h42.667v-42.667zM332.8 469.333h-42.667v42.667h42.667v-42.667zM332.8 558.933h-42.667v42.667h42.667v-42.667zM332.8 648.533h-42.667v42.667h42.667v-42.667zM422.4 379.733h-42.667v42.667h42.667v-42.667zM422.4 469.333h-42.667v42.667h42.667v-42.667zM422.4 558.933h-42.667v42.667h42.667v-42.667zM422.4 648.533h-42.667v42.667h42.667v-42.667zM512 379.733h-42.667v42.667h42.667v-42.667zM512 469.333h-42.667v42.667h42.667v-42.667zM512 558.933h-42.667v42.667h42.667v-42.667zM512 648.533h-42.667v42.667h42.667v-42.667zM601.6 379.733h-42.667v42.667h42.667v-42.667zM601.6 469.333h-42.667v42.667h42.667v-42.667zM601.6 558.933h-42.667v42.667h42.667v-42.667zM601.6 648.533h-42.667v42.667h42.667v-42.667zM691.2 379.733h-42.667v42.667h42.667v-42.667zM691.2 469.333h-42.667v42.667h42.667v-42.667zM691.2 558.933h-42.667v42.667h42.667v-42.667zM691.2 648.533h-42.667v42.667h42.667v-42.667zM780.8 379.733h-42.667v42.667h42.667v-42.667zM780.8 469.333h-42.667v42.667h42.667v-42.667zM780.8 558.933h-42.667v42.667h42.667v-42.667zM780.8 648.533h-42.667v42.667h42.667v-42.667zM827.733 469.333h-4.267v42.667h17.067l-12.8-42.667zM849.067 558.933h-25.6v42.667h34.133l-8.533-42.667zM870.4 648.533h-46.933v42.667h55.467l-8.533-42.667z" />
<glyph unicode="&#xe926;" glyph-name="cart-selected" horiz-adv-x="1135" d="M1092.267 960h-110.933c-21.333 0-38.4-12.8-42.667-34.133l-34.133-145.067h-861.867c-12.8 0-25.6-4.267-34.133-17.067-8.533-8.533-8.533-21.333-8.533-34.133l89.6-401.067c4.267-21.333 21.333-34.133 42.667-34.133h652.8l-42.667-179.2h-541.867c-25.6 0-42.667-21.333-42.667-42.667 0-25.6 21.333-42.667 42.667-42.667h46.933c-4.267-8.533-4.267-12.8-4.267-21.333 0-38.4 29.867-68.267 68.267-68.267s68.267 29.867 68.267 68.267c0 8.533 0 17.067-4.267 21.333h230.4c-4.267-8.533-4.267-12.8-4.267-21.333 0-38.4 29.867-68.267 68.267-68.267s68.267 29.867 68.267 68.267c0 8.533 0 17.067-4.267 21.333h46.933c21.333 0 38.4 21.333 42.667 42.667v0l192 802.133h76.8c25.6 0 42.667 21.333 42.667 42.667s-21.333 42.667-42.667 42.667zM157.867 469.333h-8.533l-8.533 42.667h17.067v-42.667zM157.867 558.933h-29.867l-8.533 42.667h34.133v-42.667zM157.867 648.533h-46.933l-8.533 42.667h55.467v-42.667zM243.2 379.733h-42.667v42.667h42.667v-42.667zM243.2 469.333h-42.667v42.667h42.667v-42.667zM243.2 558.933h-42.667v42.667h42.667v-42.667zM243.2 648.533h-42.667v42.667h42.667v-42.667zM332.8 379.733h-42.667v42.667h42.667v-42.667zM332.8 469.333h-42.667v42.667h42.667v-42.667zM332.8 558.933h-42.667v42.667h42.667v-42.667zM332.8 648.533h-42.667v42.667h42.667v-42.667zM422.4 379.733h-42.667v42.667h42.667v-42.667zM422.4 469.333h-42.667v42.667h42.667v-42.667zM422.4 558.933h-42.667v42.667h42.667v-42.667zM422.4 648.533h-42.667v42.667h42.667v-42.667zM512 379.733h-42.667v42.667h42.667v-42.667zM512 469.333h-42.667v42.667h42.667v-42.667zM512 558.933h-42.667v42.667h42.667v-42.667zM512 648.533h-42.667v42.667h42.667v-42.667zM601.6 379.733h-42.667v42.667h42.667v-42.667zM601.6 469.333h-42.667v42.667h42.667v-42.667zM601.6 558.933h-42.667v42.667h42.667v-42.667zM601.6 648.533h-42.667v42.667h42.667v-42.667zM691.2 379.733h-42.667v42.667h42.667v-42.667zM691.2 469.333h-42.667v42.667h42.667v-42.667zM691.2 558.933h-42.667v42.667h42.667v-42.667zM691.2 648.533h-42.667v42.667h42.667v-42.667zM780.8 379.733h-42.667v42.667h42.667v-42.667zM780.8 469.333h-42.667v42.667h42.667v-42.667zM780.8 558.933h-42.667v42.667h42.667v-42.667zM780.8 648.533h-42.667v42.667h42.667v-42.667zM827.733 469.333h-4.267v42.667h17.067l-12.8-42.667zM849.067 558.933h-25.6v42.667h34.133l-8.533-42.667zM870.4 648.533h-46.933v42.667h55.467l-8.533-42.667z" />
<glyph unicode="&#xe927;" glyph-name="da-hoc-report-default" horiz-adv-x="926" d="M917.333 810.667h-93.867l59.733 55.467c4.267 4.267 4.267 8.533 0 12.8l-42.667 42.667c-4.267 4.267-4.267 4.267-8.533 0l-55.467-59.733v85.333c0 4.267-12.8 12.8-21.333 12.8h-59.733c-4.267 0-21.333-4.267-21.333-12.8v-93.867l-55.467 64c-4.267 4.267-8.533 4.267-12.8 0l-42.667-42.667c-4.267-4.267-4.267-4.267 0-8.533l59.733-55.467h-93.867c-4.267 0-8.533-17.067-8.533-21.333v-59.733c0-4.267 4.267-21.333 8.533-21.333h93.867l-59.733-55.467c-4.267-4.267-4.267-8.533 0-12.8l42.667-42.667c4.267-4.267 4.267-4.267 8.533 0l59.733 64v-93.867c0-4.267 12.8-8.533 21.333-8.533h59.733c4.267 0 21.333 4.267 21.333 8.533v93.867l55.467-59.733c4.267-4.267 8.533-4.267 12.8 0l42.667 42.667c4.267 4.267 4.267 4.267 0 8.533l-59.733 55.467h93.867c4.267 0 8.533 12.8 8.533 21.333v59.733c-4.267 4.267-8.533 21.333-12.8 21.333zM759.467 418.133c-98.133 0-183.467 38.4-251.733 98.133h-354.133v38.4h315.733c-29.867 34.133-51.2 72.533-64 115.2h-405.333v-712.533c0-12.8 8.533-21.333 21.333-21.333h733.867c8.533 0 21.333 8.533 21.333 21.333v460.8c-8.533 0-12.8 0-17.067 0zM115.2 477.867h384v-38.4h-384v38.4zM307.2 51.2h-192v38.4h192v-38.4zM657.067 128h-541.867v38.4h541.867v-38.4zM657.067 204.8h-541.867v38.4h541.867v-38.4zM657.067 281.6h-541.867v38.4h541.867v-38.4zM657.067 362.667h-503.467v38.4h503.467v-38.4zM396.8 708.267h-396.8v153.6c0 21.333 17.067 38.4 38.4 38.4s38.4-17.067 38.4-38.4h38.4c0 21.333 17.067 38.4 38.4 38.4s38.4-17.067 38.4-38.4h38.4c0 21.333 17.067 38.4 38.4 38.4s38.4-17.067 38.4-38.4h38.4c0 21.333 17.067 38.4 38.4 38.4 4.267 0 12.8 0 17.067-4.267-8.533-34.133-17.067-68.267-17.067-106.667 0-25.6 4.267-55.467 12.8-81.067z" />
<glyph unicode="&#xe928;" glyph-name="da-hoc-report-hov" horiz-adv-x="926" d="M917.333 810.667h-93.867l59.733 55.467c4.267 4.267 4.267 8.533 0 12.8l-42.667 42.667c-4.267 4.267-4.267 4.267-8.533 0l-55.467-59.733v85.333c0 4.267-12.8 12.8-21.333 12.8h-59.733c-4.267 0-21.333-4.267-21.333-12.8v-93.867l-55.467 64c-4.267 4.267-8.533 4.267-12.8 0l-42.667-42.667c-4.267-4.267-4.267-4.267 0-8.533l59.733-55.467h-93.867c-4.267 0-8.533-17.067-8.533-21.333v-59.733c0-4.267 4.267-21.333 8.533-21.333h93.867l-59.733-55.467c-4.267-4.267-4.267-8.533 0-12.8l42.667-42.667c4.267-4.267 4.267-4.267 8.533 0l59.733 64v-93.867c0-4.267 12.8-8.533 21.333-8.533h59.733c4.267 0 21.333 4.267 21.333 8.533v93.867l55.467-59.733c4.267-4.267 8.533-4.267 12.8 0l42.667 42.667c4.267 4.267 4.267 4.267 0 8.533l-59.733 55.467h93.867c4.267 0 8.533 12.8 8.533 21.333v59.733c-4.267 4.267-8.533 21.333-12.8 21.333zM759.467 418.133c-98.133 0-183.467 38.4-251.733 98.133h-354.133v38.4h315.733c-29.867 34.133-51.2 72.533-64 115.2h-405.333v-712.533c0-12.8 8.533-21.333 21.333-21.333h733.867c8.533 0 21.333 8.533 21.333 21.333v460.8c-8.533 0-12.8 0-17.067 0zM115.2 477.867h384v-38.4h-384v38.4zM307.2 51.2h-192v38.4h192v-38.4zM657.067 128h-541.867v38.4h541.867v-38.4zM657.067 204.8h-541.867v38.4h541.867v-38.4zM657.067 281.6h-541.867v38.4h541.867v-38.4zM657.067 362.667h-503.467v38.4h503.467v-38.4zM396.8 708.267h-396.8v153.6c0 21.333 17.067 38.4 38.4 38.4s38.4-17.067 38.4-38.4h38.4c0 21.333 17.067 38.4 38.4 38.4s38.4-17.067 38.4-38.4h38.4c0 21.333 17.067 38.4 38.4 38.4s38.4-17.067 38.4-38.4h38.4c0 21.333 17.067 38.4 38.4 38.4 4.267 0 12.8 0 17.067-4.267-8.533-34.133-17.067-68.267-17.067-106.667 0-25.6 4.267-55.467 12.8-81.067z" />
<glyph unicode="&#xe929;" glyph-name="da-hoc-report-selected" horiz-adv-x="926" d="M917.333 810.667h-93.867l59.733 55.467c4.267 4.267 4.267 8.533 0 12.8l-42.667 42.667c-4.267 4.267-4.267 4.267-8.533 0l-55.467-59.733v85.333c0 4.267-12.8 12.8-21.333 12.8h-59.733c-4.267 0-21.333-4.267-21.333-12.8v-93.867l-55.467 64c-4.267 4.267-8.533 4.267-12.8 0l-42.667-42.667c-4.267-4.267-4.267-4.267 0-8.533l59.733-55.467h-93.867c-4.267 0-8.533-17.067-8.533-21.333v-59.733c0-4.267 4.267-21.333 8.533-21.333h93.867l-59.733-55.467c-4.267-4.267-4.267-8.533 0-12.8l42.667-42.667c4.267-4.267 4.267-4.267 8.533 0l59.733 64v-93.867c0-4.267 12.8-8.533 21.333-8.533h59.733c4.267 0 21.333 4.267 21.333 8.533v93.867l55.467-59.733c4.267-4.267 8.533-4.267 12.8 0l42.667 42.667c4.267 4.267 4.267 4.267 0 8.533l-59.733 55.467h93.867c4.267 0 8.533 12.8 8.533 21.333v59.733c-4.267 4.267-8.533 21.333-12.8 21.333zM759.467 418.133c-98.133 0-183.467 38.4-251.733 98.133h-354.133v38.4h315.733c-29.867 34.133-51.2 72.533-64 115.2h-405.333v-712.533c0-12.8 8.533-21.333 21.333-21.333h733.867c8.533 0 21.333 8.533 21.333 21.333v460.8c-8.533 0-12.8 0-17.067 0zM115.2 477.867h384v-38.4h-384v38.4zM307.2 51.2h-192v38.4h192v-38.4zM657.067 128h-541.867v38.4h541.867v-38.4zM657.067 204.8h-541.867v38.4h541.867v-38.4zM657.067 281.6h-541.867v38.4h541.867v-38.4zM657.067 362.667h-503.467v38.4h503.467v-38.4zM396.8 708.267h-396.8v153.6c0 21.333 17.067 38.4 38.4 38.4s38.4-17.067 38.4-38.4h38.4c0 21.333 17.067 38.4 38.4 38.4s38.4-17.067 38.4-38.4h38.4c0 21.333 17.067 38.4 38.4 38.4s38.4-17.067 38.4-38.4h38.4c0 21.333 17.067 38.4 38.4 38.4 4.267 0 12.8 0 17.067-4.267-8.533-34.133-17.067-68.267-17.067-106.667 0-25.6 4.267-55.467 12.8-81.067z" />
<glyph unicode="&#xe92a;" glyph-name="dashboard-default" horiz-adv-x="1075" d="M0 469.333c0 273.067 221.867 490.667 494.933 490.667 136.533 0 256-55.467 345.6-145.067l-349.867-345.6v-490.667c-264.533 0-490.667 221.867-490.667 490.667zM580.267 469.333l345.6 345.6c192-192 192-503.467 0-695.467l-345.6 349.867zM533.333 430.933v-494.933c132.267 0 251.733 46.933 345.6 145.067l-345.6 349.867z" />
<glyph unicode="&#xe92b;" glyph-name="dashboard-hov" horiz-adv-x="1075" d="M0 469.333c0 273.067 221.867 490.667 494.933 490.667 136.533 0 256-55.467 345.6-145.067l-349.867-345.6v-490.667c-264.533 0-490.667 221.867-490.667 490.667zM580.267 469.333l345.6 345.6c192-192 192-503.467 0-695.467l-345.6 349.867zM533.333 430.933v-494.933c132.267 0 251.733 46.933 345.6 145.067l-345.6 349.867z" />
<glyph unicode="&#xe92c;" glyph-name="dashboard-mgmt-default" horiz-adv-x="1207" d="M759.467 418.133l315.733 315.733c174.933-174.933 174.933-456.533 0-631.467l-315.733 315.733zM716.8 384v-448c119.467 0 230.4 42.667 315.733 132.267l-315.733 315.733zM516.267 605.867c-4.267-17.067-12.8-38.4-21.333-55.467l42.667-68.267c-17.067-21.333-34.133-38.4-55.467-55.467l-68.267 42.667c-17.067-8.533-34.133-17.067-55.467-21.333l-21.333-76.8c-12.8-4.267-25.6-8.533-38.4-8.533s-25.6 0-38.4 4.267l-21.333 76.8c-17.067 4.267-38.4 12.8-55.467 21.333l-68.267-42.667c-21.333 17.067-38.4 34.133-55.467 55.467l42.667 68.267c-8.533 21.333-17.067 38.4-21.333 59.733l-76.8 17.067c-4.267 12.8-4.267 25.6-4.267 38.4s0 25.6 4.267 38.4l76.8 21.333c4.267 17.067 12.8 38.4 21.333 51.2l-42.667 68.267c17.067 21.333 34.133 38.4 55.467 55.467l68.267-42.667c17.067 12.8 38.4 21.333 55.467 25.6l21.333 76.8c12.8 4.267 25.6 4.267 38.4 4.267s25.6 0 38.4-4.267l21.333-76.8c17.067-4.267 34.133-12.8 51.2-21.333l68.267 42.667c21.333-17.067 38.4-34.133 55.467-55.467l-42.667-68.267c8.533-17.067 17.067-34.133 21.333-55.467l76.8-21.333c4.267-12.8 8.533-25.6 8.533-38.4s0-25.6-4.267-38.4l-76.8-17.067zM401.067 661.333c0 55.467-46.933 102.4-102.4 102.4s-106.667-42.667-106.667-102.4 46.933-102.4 106.667-102.4 102.4 46.933 102.4 102.4zM678.4 866.133c-17.067 0-38.4 0-55.467-4.267 38.4-59.733 59.733-128 59.733-200.533 0-213.333-170.667-384-384-384-12.8 0-29.867 0-42.667 4.267 59.733-179.2 230.4-307.2 422.4-307.2v443.733l315.733 315.733c-81.067 81.067-192 132.267-315.733 132.267z" />
<glyph unicode="&#xe92d;" glyph-name="dashboard-mgmt-hov" horiz-adv-x="1207" d="M759.467 418.133l315.733 315.733c174.933-174.933 174.933-456.533 0-631.467l-315.733 315.733zM716.8 384v-448c119.467 0 230.4 42.667 315.733 132.267l-315.733 315.733zM516.267 605.867c-4.267-17.067-12.8-38.4-21.333-55.467l42.667-68.267c-17.067-21.333-34.133-38.4-55.467-55.467l-68.267 42.667c-17.067-8.533-34.133-17.067-55.467-21.333l-21.333-76.8c-12.8-4.267-25.6-8.533-38.4-8.533s-25.6 0-38.4 4.267l-21.333 76.8c-17.067 4.267-38.4 12.8-55.467 21.333l-68.267-42.667c-21.333 17.067-38.4 34.133-55.467 55.467l42.667 68.267c-8.533 21.333-17.067 38.4-21.333 59.733l-76.8 17.067c-4.267 12.8-4.267 25.6-4.267 38.4s0 25.6 4.267 38.4l76.8 21.333c4.267 17.067 12.8 38.4 21.333 51.2l-42.667 68.267c17.067 21.333 34.133 38.4 55.467 55.467l68.267-42.667c17.067 12.8 38.4 21.333 55.467 25.6l21.333 76.8c12.8 4.267 25.6 4.267 38.4 4.267s25.6 0 38.4-4.267l21.333-76.8c17.067-4.267 34.133-12.8 51.2-21.333l68.267 42.667c21.333-17.067 38.4-34.133 55.467-55.467l-42.667-68.267c8.533-17.067 17.067-34.133 21.333-55.467l76.8-21.333c4.267-12.8 8.533-25.6 8.533-38.4s0-25.6-4.267-38.4l-76.8-17.067zM401.067 661.333c0 55.467-46.933 102.4-102.4 102.4s-106.667-42.667-106.667-102.4 46.933-102.4 106.667-102.4 102.4 46.933 102.4 102.4zM678.4 866.133c-17.067 0-38.4 0-55.467-4.267 38.4-59.733 59.733-128 59.733-200.533 0-213.333-170.667-384-384-384-12.8 0-29.867 0-42.667 4.267 59.733-179.2 230.4-307.2 422.4-307.2v443.733l315.733 315.733c-81.067 81.067-192 132.267-315.733 132.267z" />
<glyph unicode="&#xe92e;" glyph-name="dashboard-mgmt-selected" horiz-adv-x="1207" d="M759.467 418.133l315.733 315.733c174.933-174.933 174.933-456.533 0-631.467l-315.733 315.733zM716.8 384v-448c119.467 0 230.4 42.667 315.733 132.267l-315.733 315.733zM516.267 605.867c-4.267-17.067-12.8-38.4-21.333-55.467l42.667-68.267c-17.067-21.333-34.133-38.4-55.467-55.467l-68.267 42.667c-17.067-8.533-34.133-17.067-55.467-21.333l-21.333-76.8c-12.8-4.267-25.6-8.533-38.4-8.533s-25.6 0-38.4 4.267l-21.333 76.8c-17.067 4.267-38.4 12.8-55.467 21.333l-68.267-42.667c-21.333 17.067-38.4 34.133-55.467 55.467l42.667 68.267c-8.533 21.333-17.067 38.4-21.333 59.733l-76.8 17.067c-4.267 12.8-4.267 25.6-4.267 38.4s0 25.6 4.267 38.4l76.8 21.333c4.267 17.067 12.8 38.4 21.333 51.2l-42.667 68.267c17.067 21.333 34.133 38.4 55.467 55.467l68.267-42.667c17.067 12.8 38.4 21.333 55.467 25.6l21.333 76.8c12.8 4.267 25.6 4.267 38.4 4.267s25.6 0 38.4-4.267l21.333-76.8c17.067-4.267 34.133-12.8 51.2-21.333l68.267 42.667c21.333-17.067 38.4-34.133 55.467-55.467l-42.667-68.267c8.533-17.067 17.067-34.133 21.333-55.467l76.8-21.333c4.267-12.8 8.533-25.6 8.533-38.4s0-25.6-4.267-38.4l-76.8-17.067zM401.067 661.333c0 55.467-46.933 102.4-102.4 102.4s-106.667-42.667-106.667-102.4 46.933-102.4 106.667-102.4 102.4 46.933 102.4 102.4zM678.4 866.133c-17.067 0-38.4 0-55.467-4.267 38.4-59.733 59.733-128 59.733-200.533 0-213.333-170.667-384-384-384-12.8 0-29.867 0-42.667 4.267 59.733-179.2 230.4-307.2 422.4-307.2v443.733l315.733 315.733c-81.067 81.067-192 132.267-315.733 132.267z" />
<glyph unicode="&#xe92f;" glyph-name="dashboard-selected" horiz-adv-x="1075" d="M0 469.333c0 273.067 221.867 490.667 494.933 490.667 136.533 0 256-55.467 345.6-145.067l-349.867-345.6v-490.667c-264.533 0-490.667 221.867-490.667 490.667zM580.267 469.333l345.6 345.6c192-192 192-503.467 0-695.467l-345.6 349.867zM533.333 430.933v-494.933c132.267 0 251.733 46.933 345.6 145.067l-345.6 349.867z" />
<glyph unicode="&#xe930;" glyph-name="detail-dashboard-default" horiz-adv-x="1242" d="M750.933 469.333l345.6 345.6c192-192 192-503.467 0-695.467l-345.6 349.867zM704 426.667v-490.667c132.267 0 251.733 46.933 345.6 145.067l-345.6 345.6zM725.333 742.4c0 0-170.667-183.467-362.667-183.467s-362.667 183.467-362.667 183.467 123.733 217.6 362.667 217.6 362.667-217.6 362.667-217.6zM315.733 772.267l-21.333-21.333c4.267-12.8 17.067-25.6 29.867-34.133l17.067 17.067c-12.8 4.267-25.6 21.333-25.6 38.4zM307.2 857.6c-25.6-4.267-51.2-12.8-76.8-21.333-8.533-17.067-12.8-38.4-12.8-59.733 0-81.067 64-145.067 145.067-145.067s145.067 64 145.067 145.067c0 21.333-4.267 42.667-12.8 59.733-25.6 8.533-51.2 17.067-76.8 21.333 25.6-17.067 42.667-46.933 42.667-81.067 0-55.467-42.667-98.133-98.133-98.133s-98.133 42.667-98.133 98.133c0 34.133 17.067 64 42.667 81.067zM68.267 742.4c25.6-25.6 81.067-72.533 153.6-102.4-34.133 34.133-55.467 85.333-55.467 136.533 0 12.8 0 21.333 4.267 34.133-46.933-25.6-81.067-51.2-102.4-68.267zM665.6 742.4c-21.333 17.067-59.733 46.933-110.933 72.533 0-12.8 4.267-25.6 4.267-38.4 0-55.467-21.333-102.4-59.733-140.8 76.8 34.133 140.8 81.067 166.4 106.667zM661.333 960c-12.8 0-25.6 0-38.4 0 153.6-89.6 234.667-230.4 234.667-230.4s-243.2-256-507.733-256c-59.733 0-123.733 12.8-179.2 34.133 0-12.8 0-25.6 0-38.4 0-273.067 226.133-490.667 490.667-490.667v490.667l349.867 345.6c-89.6 89.6-213.333 145.067-349.867 145.067z" />
<glyph unicode="&#xe931;" glyph-name="detail-dashboard-hov" horiz-adv-x="1242" d="M750.933 469.333l345.6 345.6c192-192 192-503.467 0-695.467l-345.6 349.867zM704 426.667v-490.667c132.267 0 251.733 46.933 345.6 145.067l-345.6 345.6zM725.333 742.4c0 0-170.667-183.467-362.667-183.467s-362.667 183.467-362.667 183.467 123.733 217.6 362.667 217.6 362.667-217.6 362.667-217.6zM315.733 772.267l-21.333-21.333c4.267-12.8 17.067-25.6 29.867-34.133l17.067 17.067c-12.8 4.267-25.6 21.333-25.6 38.4zM307.2 857.6c-25.6-4.267-51.2-12.8-76.8-21.333-8.533-17.067-12.8-38.4-12.8-59.733 0-81.067 64-145.067 145.067-145.067s145.067 64 145.067 145.067c0 21.333-4.267 42.667-12.8 59.733-25.6 8.533-51.2 17.067-76.8 21.333 25.6-17.067 42.667-46.933 42.667-81.067 0-55.467-42.667-98.133-98.133-98.133s-98.133 42.667-98.133 98.133c0 34.133 17.067 64 42.667 81.067zM68.267 742.4c25.6-25.6 81.067-72.533 153.6-102.4-34.133 34.133-55.467 85.333-55.467 136.533 0 12.8 0 21.333 4.267 34.133-46.933-25.6-81.067-51.2-102.4-68.267zM665.6 742.4c-21.333 17.067-59.733 46.933-110.933 72.533 0-12.8 4.267-25.6 4.267-38.4 0-55.467-21.333-102.4-59.733-140.8 76.8 34.133 140.8 81.067 166.4 106.667zM661.333 960c-12.8 0-25.6 0-38.4 0 153.6-89.6 234.667-230.4 234.667-230.4s-243.2-256-507.733-256c-59.733 0-123.733 12.8-179.2 34.133 0-12.8 0-25.6 0-38.4 0-273.067 226.133-490.667 490.667-490.667v490.667l349.867 345.6c-89.6 89.6-213.333 145.067-349.867 145.067z" />
<glyph unicode="&#xe932;" glyph-name="detail-dashboard-selected" horiz-adv-x="1242" d="M750.933 469.333l345.6 345.6c192-192 192-503.467 0-695.467l-345.6 349.867zM704 426.667v-490.667c132.267 0 251.733 46.933 345.6 145.067l-345.6 345.6zM725.333 742.4c0 0-170.667-183.467-362.667-183.467s-362.667 183.467-362.667 183.467 123.733 217.6 362.667 217.6 362.667-217.6 362.667-217.6zM315.733 772.267l-21.333-21.333c4.267-12.8 17.067-25.6 29.867-34.133l17.067 17.067c-12.8 4.267-25.6 21.333-25.6 38.4zM307.2 857.6c-25.6-4.267-51.2-12.8-76.8-21.333-8.533-17.067-12.8-38.4-12.8-59.733 0-81.067 64-145.067 145.067-145.067s145.067 64 145.067 145.067c0 21.333-4.267 42.667-12.8 59.733-25.6 8.533-51.2 17.067-76.8 21.333 25.6-17.067 42.667-46.933 42.667-81.067 0-55.467-42.667-98.133-98.133-98.133s-98.133 42.667-98.133 98.133c0 34.133 17.067 64 42.667 81.067zM68.267 742.4c25.6-25.6 81.067-72.533 153.6-102.4-34.133 34.133-55.467 85.333-55.467 136.533 0 12.8 0 21.333 4.267 34.133-46.933-25.6-81.067-51.2-102.4-68.267zM665.6 742.4c-21.333 17.067-59.733 46.933-110.933 72.533 0-12.8 4.267-25.6 4.267-38.4 0-55.467-21.333-102.4-59.733-140.8 76.8 34.133 140.8 81.067 166.4 106.667zM661.333 960c-12.8 0-25.6 0-38.4 0 153.6-89.6 234.667-230.4 234.667-230.4s-243.2-256-507.733-256c-59.733 0-123.733 12.8-179.2 34.133 0-12.8 0-25.6 0-38.4 0-273.067 226.133-490.667 490.667-490.667v490.667l349.867 345.6c-89.6 89.6-213.333 145.067-349.867 145.067z" />
<glyph unicode="&#xe933;" glyph-name="dropsite-default" d="M896 234.667v-85.333h-358.4l315.733 366.933c8.533 8.533 4.267 17.067-8.533 17.067h-204.8v405.333c0 12.8-8.533 21.333-21.333 21.333h-213.333c-8.533 0-21.333-8.533-21.333-21.333v-405.333h-200.533c-12.8 0-12.8-8.533-8.533-17.067l315.733-366.933h-362.667v85.333h-128v-256c0-21.333 21.333-42.667 42.667-42.667h938.667c21.333 0 42.667 21.333 42.667 42.667v256h-128z" />
<glyph unicode="&#xe934;" glyph-name="dropsite-hov" d="M896 234.667v-85.333h-358.4l315.733 366.933c8.533 8.533 4.267 17.067-8.533 17.067h-204.8v405.333c0 12.8-8.533 21.333-21.333 21.333h-213.333c-8.533 0-21.333-8.533-21.333-21.333v-405.333h-200.533c-12.8 0-12.8-8.533-8.533-17.067l315.733-366.933h-362.667v85.333h-128v-256c0-21.333 21.333-42.667 42.667-42.667h938.667c21.333 0 42.667 21.333 42.667 42.667v256h-128z" />
<glyph unicode="&#xe935;" glyph-name="dropsite-selected" d="M896 234.667v-85.333h-358.4l315.733 366.933c8.533 8.533 4.267 17.067-8.533 17.067h-204.8v405.333c0 12.8-8.533 21.333-21.333 21.333h-213.333c-8.533 0-21.333-8.533-21.333-21.333v-405.333h-200.533c-12.8 0-12.8-8.533-8.533-17.067l315.733-366.933h-362.667v85.333h-128v-256c0-21.333 21.333-42.667 42.667-42.667h938.667c21.333 0 42.667 21.333 42.667 42.667v256h-128z" />
<glyph unicode="&#xe936;" glyph-name="e-learn-default" d="M742.4 708.267c-85.333 0-128-21.333-128-21.333s-42.667 21.333-128 21.333c-89.6 0-145.067-25.6-145.067-25.6v-21.333l-25.6-8.533v-290.133c0 0 98.133 38.4 157.867 38.4s136.533-25.6 136.533-25.6 64 17.067 123.733 17.067c8.533 0 17.067 0 25.6 0v-76.8l38.4 34.133 34.133-34.133v64c51.2-8.533 72.533-17.067 72.533-17.067v290.133l-21.333 8.533v21.333c0 0-55.467 25.6-140.8 25.6zM588.8 430.933c-25.6 4.267-64 12.8-98.133 12.8-55.467 0-72.533-8.533-98.133-12.8v230.4c0 0 25.6 12.8 98.133 12.8 42.667 0 72.533-8.533 98.133-21.333v-221.867zM832 430.933c-25.6 4.267-42.667 12.8-98.133 12.8-34.133 0-72.533-8.533-98.133-12.8v226.133c25.6 12.8 55.467 21.333 98.133 21.333 72.533 0 98.133-12.8 98.133-12.8v-234.667zM849.067 960h-537.6c-81.067 0-128-72.533-128-132.267v-354.133l46.933-59.733v349.867h738.133v-563.2h-503.467l-17.067-21.333c4.267-51.2-42.667-132.267-81.067-174.933h477.867c81.067 0 174.933 51.2 174.933 110.933v712.533c4.267 59.733-89.6 132.267-170.667 132.267zM375.467 810.667c-17.067 0-29.867 12.8-29.867 25.6s12.8 25.6 29.867 25.6c17.067 0 29.867-12.8 29.867-25.6s-12.8-25.6-29.867-25.6zM716.8 802.133h-213.333v38.4h213.333v-38.4zM622.933 64c-25.6 0-42.667 17.067-42.667 42.667 0 21.333 21.333 42.667 42.667 42.667 25.6 0 42.667-17.067 42.667-42.667 4.267-25.6-17.067-42.667-42.667-42.667zM482.133 285.867c0 0 34.133 38.4 8.533 68.267-34.133 42.667-93.867-8.533-93.867-8.533l-119.467-76.8-140.8 170.667 8.533 204.8c-42.667-21.333-119.467-106.667-119.467-106.667s-25.6-29.867-25.6-59.733v-337.067c0 0-12.8-179.2 110.933-200.533 0 0 102.4-29.867 166.4 46.933 0 0 98.133 106.667 98.133 174.933l106.667 123.733z" />
<glyph unicode="&#xe937;" glyph-name="e-learn-hov" d="M742.4 708.267c-85.333 0-128-21.333-128-21.333s-42.667 21.333-128 21.333c-89.6 0-145.067-25.6-145.067-25.6v-21.333l-25.6-8.533v-290.133c0 0 98.133 38.4 157.867 38.4s136.533-25.6 136.533-25.6 64 17.067 123.733 17.067c8.533 0 17.067 0 25.6 0v-76.8l38.4 34.133 34.133-34.133v64c51.2-8.533 72.533-17.067 72.533-17.067v290.133l-21.333 8.533v21.333c0 0-55.467 25.6-140.8 25.6zM588.8 430.933c-25.6 4.267-64 12.8-98.133 12.8-55.467 0-72.533-8.533-98.133-12.8v230.4c0 0 25.6 12.8 98.133 12.8 42.667 0 72.533-8.533 98.133-21.333v-221.867zM832 430.933c-25.6 4.267-42.667 12.8-98.133 12.8-34.133 0-72.533-8.533-98.133-12.8v226.133c25.6 12.8 55.467 21.333 98.133 21.333 72.533 0 98.133-12.8 98.133-12.8v-234.667zM849.067 960h-537.6c-81.067 0-128-72.533-128-132.267v-354.133l46.933-59.733v349.867h738.133v-563.2h-503.467l-17.067-21.333c4.267-51.2-42.667-132.267-81.067-174.933h477.867c81.067 0 174.933 51.2 174.933 110.933v712.533c4.267 59.733-89.6 132.267-170.667 132.267zM375.467 810.667c-17.067 0-29.867 12.8-29.867 25.6s12.8 25.6 29.867 25.6c17.067 0 29.867-12.8 29.867-25.6s-12.8-25.6-29.867-25.6zM716.8 802.133h-213.333v38.4h213.333v-38.4zM622.933 64c-25.6 0-42.667 17.067-42.667 42.667 0 21.333 21.333 42.667 42.667 42.667 25.6 0 42.667-17.067 42.667-42.667 4.267-25.6-17.067-42.667-42.667-42.667zM482.133 285.867c0 0 34.133 38.4 8.533 68.267-34.133 42.667-93.867-8.533-93.867-8.533l-119.467-76.8-140.8 170.667 8.533 204.8c-42.667-21.333-119.467-106.667-119.467-106.667s-25.6-29.867-25.6-59.733v-337.067c0 0-12.8-179.2 110.933-200.533 0 0 102.4-29.867 166.4 46.933 0 0 98.133 106.667 98.133 174.933l106.667 123.733z" />
<glyph unicode="&#xe938;" glyph-name="e-learn-selected" d="M742.4 708.267c-85.333 0-128-21.333-128-21.333s-42.667 21.333-128 21.333c-89.6 0-145.067-25.6-145.067-25.6v-21.333l-25.6-8.533v-290.133c0 0 98.133 38.4 157.867 38.4s136.533-25.6 136.533-25.6 64 17.067 123.733 17.067c8.533 0 17.067 0 25.6 0v-76.8l38.4 34.133 34.133-34.133v64c51.2-8.533 72.533-17.067 72.533-17.067v290.133l-21.333 8.533v21.333c0 0-55.467 25.6-140.8 25.6zM588.8 430.933c-25.6 4.267-64 12.8-98.133 12.8-55.467 0-72.533-8.533-98.133-12.8v230.4c0 0 25.6 12.8 98.133 12.8 42.667 0 72.533-8.533 98.133-21.333v-221.867zM832 430.933c-25.6 4.267-42.667 12.8-98.133 12.8-34.133 0-72.533-8.533-98.133-12.8v226.133c25.6 12.8 55.467 21.333 98.133 21.333 72.533 0 98.133-12.8 98.133-12.8v-234.667zM849.067 960h-537.6c-81.067 0-128-72.533-128-132.267v-354.133l46.933-59.733v349.867h738.133v-563.2h-503.467l-17.067-21.333c4.267-51.2-42.667-132.267-81.067-174.933h477.867c81.067 0 174.933 51.2 174.933 110.933v712.533c4.267 59.733-89.6 132.267-170.667 132.267zM375.467 810.667c-17.067 0-29.867 12.8-29.867 25.6s12.8 25.6 29.867 25.6c17.067 0 29.867-12.8 29.867-25.6s-12.8-25.6-29.867-25.6zM716.8 802.133h-213.333v38.4h213.333v-38.4zM622.933 64c-25.6 0-42.667 17.067-42.667 42.667 0 21.333 21.333 42.667 42.667 42.667 25.6 0 42.667-17.067 42.667-42.667 4.267-25.6-17.067-42.667-42.667-42.667zM482.133 285.867c0 0 34.133 38.4 8.533 68.267-34.133 42.667-93.867-8.533-93.867-8.533l-119.467-76.8-140.8 170.667 8.533 204.8c-42.667-21.333-119.467-106.667-119.467-106.667s-25.6-29.867-25.6-59.733v-337.067c0 0-12.8-179.2 110.933-200.533 0 0 102.4-29.867 166.4 46.933 0 0 98.133 106.667 98.133 174.933l106.667 123.733z" />
<glyph unicode="&#xe939;" glyph-name="expand-default" d="M59.733 409.6l-59.733-456.533c0-12.8 4.267-17.067 17.067-17.067l460.8 59.733c8.533 0 12.8 8.533 4.267 12.8l-128 128 110.933 110.933c8.533 8.533 8.533 17.067 0 25.6l-123.733 128c-8.533 8.533-17.067 8.533-25.6 0l-110.933-110.933-128 128c-8.533 4.267-17.067 4.267-17.067-8.533zM964.267 486.4l59.733 456.533c0 12.8-4.267 17.067-17.067 17.067l-456.533-59.733c-8.533 0-12.8-8.533-4.267-12.8l128-128-110.933-110.933c-8.533-8.533-8.533-17.067 0-25.6l123.733-123.733c8.533-8.533 17.067-8.533 25.6 0l110.933 110.933 128-128c4.267-8.533 12.8-8.533 12.8 4.267zM473.6 900.267l-456.533 59.733c-12.8 0-17.067-4.267-17.067-17.067l59.733-460.8c0-8.533 8.533-12.8 12.8-4.267l128 128 110.933-110.933c8.533-8.533 17.067-8.533 25.6 0l128 123.733c8.533 8.533 8.533 17.067 0 25.6l-115.2 115.2 128 128c8.533 4.267 8.533 12.8-4.267 12.8zM550.4-4.267l456.533-59.733c8.533 0 17.067 4.267 17.067 17.067l-59.733 460.8c0 8.533-8.533 12.8-12.8 4.267l-128-128-110.933 110.933c-8.533 8.533-17.067 8.533-25.6 0l-128-123.733c-8.533-8.533-8.533-17.067 0-25.6l110.933-110.933-128-128c-4.267-8.533-4.267-17.067 8.533-17.067z" />
<glyph unicode="&#xe93a;" glyph-name="expand-hov" d="M59.733 409.6l-59.733-456.533c0-12.8 4.267-17.067 17.067-17.067l460.8 59.733c8.533 0 12.8 8.533 4.267 12.8l-128 128 110.933 110.933c8.533 8.533 8.533 17.067 0 25.6l-123.733 128c-8.533 8.533-17.067 8.533-25.6 0l-110.933-110.933-128 128c-8.533 4.267-17.067 4.267-17.067-8.533zM964.267 486.4l59.733 456.533c0 12.8-4.267 17.067-17.067 17.067l-456.533-59.733c-8.533 0-12.8-8.533-4.267-12.8l128-128-110.933-110.933c-8.533-8.533-8.533-17.067 0-25.6l123.733-123.733c8.533-8.533 17.067-8.533 25.6 0l110.933 110.933 128-128c4.267-8.533 12.8-8.533 12.8 4.267zM473.6 900.267l-456.533 59.733c-12.8 0-17.067-4.267-17.067-17.067l59.733-460.8c0-8.533 8.533-12.8 12.8-4.267l128 128 110.933-110.933c8.533-8.533 17.067-8.533 25.6 0l128 123.733c8.533 8.533 8.533 17.067 0 25.6l-115.2 115.2 128 128c8.533 4.267 8.533 12.8-4.267 12.8zM550.4-4.267l456.533-59.733c8.533 0 17.067 4.267 17.067 17.067l-59.733 460.8c0 8.533-8.533 12.8-12.8 4.267l-128-128-110.933 110.933c-8.533 8.533-17.067 8.533-25.6 0l-128-123.733c-8.533-8.533-8.533-17.067 0-25.6l110.933-110.933-128-128c-4.267-8.533-4.267-17.067 8.533-17.067z" />
<glyph unicode="&#xe93b;" glyph-name="expand-selected" d="M59.733 409.6l-59.733-456.533c0-12.8 4.267-17.067 17.067-17.067l460.8 59.733c8.533 0 12.8 8.533 4.267 12.8l-128 128 110.933 110.933c8.533 8.533 8.533 17.067 0 25.6l-123.733 128c-8.533 8.533-17.067 8.533-25.6 0l-110.933-110.933-128 128c-8.533 4.267-17.067 4.267-17.067-8.533zM964.267 486.4l59.733 456.533c0 12.8-4.267 17.067-17.067 17.067l-456.533-59.733c-8.533 0-12.8-8.533-4.267-12.8l128-128-110.933-110.933c-8.533-8.533-8.533-17.067 0-25.6l123.733-123.733c8.533-8.533 17.067-8.533 25.6 0l110.933 110.933 128-128c4.267-8.533 12.8-8.533 12.8 4.267zM473.6 900.267l-456.533 59.733c-12.8 0-17.067-4.267-17.067-17.067l59.733-460.8c0-8.533 8.533-12.8 12.8-4.267l128 128 110.933-110.933c8.533-8.533 17.067-8.533 25.6 0l128 123.733c8.533 8.533 8.533 17.067 0 25.6l-115.2 115.2 128 128c8.533 4.267 8.533 12.8-4.267 12.8zM550.4-4.267l456.533-59.733c8.533 0 17.067 4.267 17.067 17.067l-59.733 460.8c0 8.533-8.533 12.8-12.8 4.267l-128-128-110.933 110.933c-8.533 8.533-17.067 8.533-25.6 0l-128-123.733c-8.533-8.533-8.533-17.067 0-25.6l110.933-110.933-128-128c-4.267-8.533-4.267-17.067 8.533-17.067z" />
<glyph unicode="&#xe93c;" glyph-name="favorite-default" horiz-adv-x="1092" d="M1092.267 563.2h-413.867l-128 396.8-128-396.8h-422.4l341.333-238.933-128-388.267 337.067 243.2 337.067-243.2-128 388.267 332.8 238.933z" />
<glyph unicode="&#xe93d;" glyph-name="favorite-hov" horiz-adv-x="1092" d="M1092.267 563.2h-413.867l-128 396.8-128-396.8h-422.4l341.333-238.933-128-388.267 337.067 243.2 337.067-243.2-128 388.267 332.8 238.933z" />
<glyph unicode="&#xe93e;" glyph-name="favorite-selected" horiz-adv-x="1092" d="M1092.267 563.2h-413.867l-128 396.8-128-396.8h-422.4l341.333-238.933-128-388.267 337.067 243.2 337.067-243.2-128 388.267 332.8 238.933z" />
<glyph unicode="&#xe93f;" glyph-name="filter-default" horiz-adv-x="853" d="M0 960v-59.733c0-21.333 21.333-42.667 42.667-42.667h768c21.333 0 42.667 21.333 42.667 42.667v59.733h-853.333zM341.333 362.667v-426.667l170.667 170.667v256l298.667 469.333h-768l298.667-469.333z" />
<glyph unicode="&#xe940;" glyph-name="filter-hov" horiz-adv-x="853" d="M0 960v-59.733c0-21.333 21.333-42.667 42.667-42.667h768c21.333 0 42.667 21.333 42.667 42.667v59.733h-853.333zM341.333 362.667v-426.667l170.667 170.667v256l298.667 469.333h-768l298.667-469.333z" />
<glyph unicode="&#xe941;" glyph-name="filter-selected" horiz-adv-x="853" d="M0 960v-59.733c0-21.333 21.333-42.667 42.667-42.667h768c21.333 0 42.667 21.333 42.667 42.667v59.733h-853.333zM341.333 362.667v-426.667l170.667 170.667v256l298.667 469.333h-768l298.667-469.333z" />
<glyph unicode="&#xe942;" glyph-name="inbox-default" horiz-adv-x="1067" d="M1066.667 435.2l-166.4 507.733c0 8.533-17.067 17.067-25.6 17.067h-678.4c-12.8 0-25.6-8.533-29.867-21.333l-162.133-503.467c0 0 0-477.867 0-477.867-4.267-8.533 8.533-21.333 17.067-21.333h1024c12.8 0 21.333 8.533 21.333 21.333 4.267 0 0 477.867 0 477.867zM264.533 827.733h541.867l136.533-401.067h-183.467l-89.6-221.867h-268.8l-89.6 221.867h-179.2l132.267 401.067z" />
<glyph unicode="&#xe943;" glyph-name="inbox-hov" horiz-adv-x="1067" d="M1066.667 435.2l-166.4 507.733c0 8.533-17.067 17.067-25.6 17.067h-678.4c-12.8 0-25.6-8.533-29.867-21.333l-162.133-503.467c0 0 0-477.867 0-477.867-4.267-8.533 8.533-21.333 17.067-21.333h1024c12.8 0 21.333 8.533 21.333 21.333 4.267 0 0 477.867 0 477.867zM264.533 827.733h541.867l136.533-401.067h-183.467l-89.6-221.867h-268.8l-89.6 221.867h-179.2l132.267 401.067z" />
<glyph unicode="&#xe944;" glyph-name="inbox-selected" horiz-adv-x="1067" d="M1066.667 435.2l-166.4 507.733c0 8.533-17.067 17.067-25.6 17.067h-678.4c-12.8 0-25.6-8.533-29.867-21.333l-162.133-503.467c0 0 0-477.867 0-477.867-4.267-8.533 8.533-21.333 17.067-21.333h1024c12.8 0 21.333 8.533 21.333 21.333 4.267 0 0 477.867 0 477.867zM264.533 827.733h541.867l136.533-401.067h-183.467l-89.6-221.867h-268.8l-89.6 221.867h-179.2l132.267 401.067z" />
<glyph unicode="&#xe945;" glyph-name="map-default" d="M524.8 797.867c-12.8-4.267-21.333-21.333-29.867-29.867-8.533 0-17.067 0-25.6 8.533 0-17.067-25.6-29.867-29.867-46.933 29.867-21.333 81.067-21.333 115.2-29.867-4.267 34.133-29.867 64-29.867 98.133zM512 960c-281.6 0-512-230.4-512-512s230.4-512 512-512 512 230.4 512 512-230.4 512-512 512zM793.6 102.4c-46.933-51.2-128-98.133-196.267-98.133-12.8 17.067 0 25.6 0 38.4-38.4 8.533-59.733 42.667-76.8 72.533-4.267 38.4 46.933 68.267 29.867 98.133-25.6-4.267-46.933 4.267-68.267 17.067-8.533 8.533-17.067 17.067-25.6 29.867-12.8 8.533-29.867 12.8-42.667 21.333-46.933 17.067-98.133 34.133-136.533 72.533 4.267 34.133-17.067 55.467-42.667 76.8-25.6 25.6-12.8 42.667-25.6 76.8-8.533 21.333-17.067 38.4-17.067 64 0 21.333 8.533 46.933 17.067 68.267 17.067 42.667 38.4 76.8 42.667 123.733 4.267 17.067-25.6 25.6-4.267 46.933 29.867 17.067 59.733 42.667 93.867 42.667 17.067 0 25.6-8.533 46.933-4.267 17.067 4.267 34.133 8.533 51.2 8.533 34.133 4.267 68.267 12.8 98.133 34.133l4.267-4.267h25.6l4.267 4.267c38.4-34.133 136.533-21.333 123.733-93.867v-4.267c-34.133-4.267-64 0-93.867 12.8 0-12.8 0-25.6 0-38.4 51.2-29.867 119.467-51.2 145.067-106.667-21.333-25.6-51.2-17.067-81.067-17.067-8.533-8.533-12.8-17.067-8.533-34.133-25.6-12.8-46.933-25.6-55.467-51.2-4.267-12.8 0-34.133-8.533-46.933-8.533-17.067-25.6-29.867-34.133-46.933 0-25.6 12.8-46.933-12.8-64-34.133 0-38.4 29.867-64 38.4s-51.2 0-76.8 4.267c-34.133-12.8-29.867-98.133 17.067-81.067 21.333 8.533 21.333 25.6 51.2 17.067 21.333-12.8 8.533-38.4 8.533-55.467 12.8-8.533 38.4-4.267 46.933-21.333 0-12.8-4.267-34.133 4.267-46.933 17.067-25.6 68.267 17.067 81.067 21.333 38.4 12.8 81.067 8.533 123.733 12.8 29.867-25.6 81.067-12.8 106.667-42.667 17.067 4.267 34.133 12.8 46.933 0-17.067-64-59.733-106.667-98.133-145.067z" />
<glyph unicode="&#xe946;" glyph-name="map-hov" d="M524.8 797.867c-12.8-4.267-21.333-21.333-29.867-29.867-8.533 0-17.067 0-25.6 8.533 0-17.067-25.6-29.867-29.867-46.933 29.867-21.333 81.067-21.333 115.2-29.867-4.267 34.133-29.867 64-29.867 98.133zM512 960c-281.6 0-512-230.4-512-512s230.4-512 512-512 512 230.4 512 512-230.4 512-512 512zM793.6 102.4c-46.933-51.2-128-98.133-196.267-98.133-12.8 17.067 0 25.6 0 38.4-38.4 8.533-59.733 42.667-76.8 72.533-4.267 38.4 46.933 68.267 29.867 98.133-25.6-4.267-46.933 4.267-68.267 17.067-8.533 8.533-17.067 17.067-25.6 29.867-12.8 8.533-29.867 12.8-42.667 21.333-46.933 17.067-98.133 34.133-136.533 72.533 4.267 34.133-17.067 55.467-42.667 76.8-25.6 25.6-12.8 42.667-25.6 76.8-8.533 21.333-17.067 38.4-17.067 64 0 21.333 8.533 46.933 17.067 68.267 17.067 42.667 38.4 76.8 42.667 123.733 4.267 17.067-25.6 25.6-4.267 46.933 29.867 17.067 59.733 42.667 93.867 42.667 17.067 0 25.6-8.533 46.933-4.267 17.067 4.267 34.133 8.533 51.2 8.533 34.133 4.267 68.267 12.8 98.133 34.133l4.267-4.267h25.6l4.267 4.267c38.4-34.133 136.533-21.333 123.733-93.867v-4.267c-34.133-4.267-64 0-93.867 12.8 0-12.8 0-25.6 0-38.4 51.2-29.867 119.467-51.2 145.067-106.667-21.333-25.6-51.2-17.067-81.067-17.067-8.533-8.533-12.8-17.067-8.533-34.133-25.6-12.8-46.933-25.6-55.467-51.2-4.267-12.8 0-34.133-8.533-46.933-8.533-17.067-25.6-29.867-34.133-46.933 0-25.6 12.8-46.933-12.8-64-34.133 0-38.4 29.867-64 38.4s-51.2 0-76.8 4.267c-34.133-12.8-29.867-98.133 17.067-81.067 21.333 8.533 21.333 25.6 51.2 17.067 21.333-12.8 8.533-38.4 8.533-55.467 12.8-8.533 38.4-4.267 46.933-21.333 0-12.8-4.267-34.133 4.267-46.933 17.067-25.6 68.267 17.067 81.067 21.333 38.4 12.8 81.067 8.533 123.733 12.8 29.867-25.6 81.067-12.8 106.667-42.667 17.067 4.267 34.133 12.8 46.933 0-17.067-64-59.733-106.667-98.133-145.067z" />
<glyph unicode="&#xe947;" glyph-name="map-selected" d="M524.8 797.867c-12.8-4.267-21.333-21.333-29.867-29.867-8.533 0-17.067 0-25.6 8.533 0-17.067-25.6-29.867-29.867-46.933 29.867-21.333 81.067-21.333 115.2-29.867-4.267 34.133-29.867 64-29.867 98.133zM512 960c-281.6 0-512-230.4-512-512s230.4-512 512-512 512 230.4 512 512-230.4 512-512 512zM793.6 102.4c-46.933-51.2-128-98.133-196.267-98.133-12.8 17.067 0 25.6 0 38.4-38.4 8.533-59.733 42.667-76.8 72.533-4.267 38.4 46.933 68.267 29.867 98.133-25.6-4.267-46.933 4.267-68.267 17.067-8.533 8.533-17.067 17.067-25.6 29.867-12.8 8.533-29.867 12.8-42.667 21.333-46.933 17.067-98.133 34.133-136.533 72.533 4.267 34.133-17.067 55.467-42.667 76.8-25.6 25.6-12.8 42.667-25.6 76.8-8.533 21.333-17.067 38.4-17.067 64 0 21.333 8.533 46.933 17.067 68.267 17.067 42.667 38.4 76.8 42.667 123.733 4.267 17.067-25.6 25.6-4.267 46.933 29.867 17.067 59.733 42.667 93.867 42.667 17.067 0 25.6-8.533 46.933-4.267 17.067 4.267 34.133 8.533 51.2 8.533 34.133 4.267 68.267 12.8 98.133 34.133l4.267-4.267h25.6l4.267 4.267c38.4-34.133 136.533-21.333 123.733-93.867v-4.267c-34.133-4.267-64 0-93.867 12.8 0-12.8 0-25.6 0-38.4 51.2-29.867 119.467-51.2 145.067-106.667-21.333-25.6-51.2-17.067-81.067-17.067-8.533-8.533-12.8-17.067-8.533-34.133-25.6-12.8-46.933-25.6-55.467-51.2-4.267-12.8 0-34.133-8.533-46.933-8.533-17.067-25.6-29.867-34.133-46.933 0-25.6 12.8-46.933-12.8-64-34.133 0-38.4 29.867-64 38.4s-51.2 0-76.8 4.267c-34.133-12.8-29.867-98.133 17.067-81.067 21.333 8.533 21.333 25.6 51.2 17.067 21.333-12.8 8.533-38.4 8.533-55.467 12.8-8.533 38.4-4.267 46.933-21.333 0-12.8-4.267-34.133 4.267-46.933 17.067-25.6 68.267 17.067 81.067 21.333 38.4 12.8 81.067 8.533 123.733 12.8 29.867-25.6 81.067-12.8 106.667-42.667 17.067 4.267 34.133 12.8 46.933 0-17.067-64-59.733-106.667-98.133-145.067z" />
<glyph unicode="&#xe948;" d="M1024 448c0-282.77-229.23-512-512-512s-512 229.23-512 512c0 282.77 229.23 512 512 512s512-229.23 512-512z" />
<glyph unicode="&#xe949;" d="M507.733 814.933c46.933 0 85.333-38.4 85.333-85.333s-38.4-85.333-85.333-85.333-85.333 38.4-85.333 85.333c0 51.2 38.4 85.333 85.333 85.333z" />
<glyph unicode="&#xe94a;" d="M507.733 537.6c46.933 0 85.333-38.4 85.333-85.333s-38.4-85.333-85.333-85.333-85.333 38.4-85.333 85.333c0 46.933 38.4 85.333 85.333 85.333z" />
<glyph unicode="&#xe94b;" d="M507.733 260.267c46.933 0 85.333-38.4 85.333-85.333s-38.4-85.333-85.333-85.333-85.333 38.4-85.333 85.333c0 46.933 38.4 85.333 85.333 85.333z" />
<glyph unicode="&#xe94c;" d="M1024 448c0-282.77-229.23-512-512-512s-512 229.23-512 512c0 282.77 229.23 512 512 512s512-229.23 512-512z" />
<glyph unicode="&#xe94d;" d="M507.733 814.933c46.933 0 85.333-38.4 85.333-85.333s-38.4-85.333-85.333-85.333-85.333 38.4-85.333 85.333c0 51.2 38.4 85.333 85.333 85.333z" />
<glyph unicode="&#xe94e;" d="M507.733 537.6c46.933 0 85.333-38.4 85.333-85.333s-38.4-85.333-85.333-85.333-85.333 38.4-85.333 85.333c0 46.933 38.4 85.333 85.333 85.333z" />
<glyph unicode="&#xe94f;" d="M507.733 260.267c46.933 0 85.333-38.4 85.333-85.333s-38.4-85.333-85.333-85.333-85.333 38.4-85.333 85.333c0 46.933 38.4 85.333 85.333 85.333z" />
<glyph unicode="&#xe950;" d="M1024 448c0-282.77-229.23-512-512-512s-512 229.23-512 512c0 282.77 229.23 512 512 512s512-229.23 512-512z" />
<glyph unicode="&#xe951;" d="M435.2 136.533l29.867 247.467c0 4.267-4.267 8.533-8.533 8.533l-247.467-29.867c-4.267 0-8.533-4.267-4.267-8.533l68.267-68.267-59.733-59.733c-4.267-4.267-4.267-8.533 0-12.8l68.267-68.267c4.267-4.267 8.533-4.267 12.8 0l59.733 59.733 68.267-68.267c8.533-8.533 12.8-4.267 12.8 0zM614.4 763.733l-29.867-247.467c0-4.267 4.267-8.533 8.533-8.533l247.467 29.867c4.267 0 8.533 4.267 4.267 8.533l-72.533 72.533 59.733 59.733c4.267 4.267 4.267 8.533 0 12.8l-64 68.267c-4.267 4.267-8.533 4.267-12.8 0l-59.733-59.733-68.267 68.267c-8.533 4.267-12.8 0-12.8-4.267zM209.067 537.6l247.467-29.867c4.267 0 8.533 4.267 8.533 8.533l-29.867 247.467c0 4.267-4.267 8.533-8.533 4.267l-68.267-72.533-59.733 64c-4.267 4.267-8.533 4.267-12.8 0l-68.267-68.267c-4.267-4.267-4.267-8.533 0-12.8l59.733-59.733-68.267-72.533c-4.267-4.267-4.267-8.533 0-8.533zM840.533 362.667l-247.467 29.867c-4.267 0-8.533-4.267-8.533-8.533l29.867-247.467c0-4.267 4.267-8.533 8.533-4.267l68.267 68.267 59.733-59.733c4.267-4.267 8.533-4.267 12.8 0l68.267 68.267c4.267 4.267 4.267 8.533 0 12.8l-59.733 59.733 68.267 68.267c4.267 8.533 4.267 8.533 0 12.8z" />
<glyph unicode="&#xe952;" d="M1024 448c0-282.77-229.23-512-512-512s-512 229.23-512 512c0 282.77 229.23 512 512 512s512-229.23 512-512z" />
<glyph unicode="&#xe953;" d="M435.2 136.533l29.867 247.467c0 4.267-4.267 8.533-8.533 8.533l-247.467-29.867c-4.267 0-8.533-4.267-4.267-8.533l68.267-68.267-59.733-59.733c-4.267-4.267-4.267-8.533 0-12.8l68.267-68.267c4.267-4.267 8.533-4.267 12.8 0l59.733 59.733 68.267-68.267c8.533-8.533 12.8-4.267 12.8 0zM614.4 763.733l-29.867-247.467c0-4.267 4.267-8.533 8.533-8.533l247.467 29.867c4.267 0 8.533 4.267 4.267 8.533l-72.533 72.533 59.733 59.733c4.267 4.267 4.267 8.533 0 12.8l-64 68.267c-4.267 4.267-8.533 4.267-12.8 0l-59.733-59.733-68.267 68.267c-8.533 4.267-12.8 0-12.8-4.267zM209.067 537.6l247.467-29.867c4.267 0 8.533 4.267 8.533 8.533l-29.867 247.467c0 4.267-4.267 8.533-8.533 4.267l-68.267-72.533-59.733 64c-4.267 4.267-8.533 4.267-12.8 0l-68.267-68.267c-4.267-4.267-4.267-8.533 0-12.8l59.733-59.733-68.267-72.533c-4.267-4.267-4.267-8.533 0-8.533zM840.533 362.667l-247.467 29.867c-4.267 0-8.533-4.267-8.533-8.533l29.867-247.467c0-4.267 4.267-8.533 8.533-4.267l68.267 68.267 59.733-59.733c4.267-4.267 8.533-4.267 12.8 0l68.267 68.267c4.267 4.267 4.267 8.533 0 12.8l-59.733 59.733 68.267 68.267c4.267 8.533 4.267 8.533 0 12.8z" />
<glyph unicode="&#xe954;" d="M1024 448c0-282.77-229.23-512-512-512s-512 229.23-512 512c0 282.77 229.23 512 512 512s512-229.23 512-512z" />
<glyph unicode="&#xe955;" d="M277.333 422.4l-34.133-256c0-4.267 4.267-8.533 8.533-8.533l256 34.133c4.267 0 8.533 4.267 4.267 8.533l-72.533 72.533 64 64c4.267 4.267 4.267 8.533 0 12.8l-68.267 68.267c-4.267 4.267-8.533 4.267-12.8 0l-64-64-72.533 72.533c-4.267 4.267-4.267 4.267-8.533-4.267zM789.333 465.067l34.133 256c0 4.267-4.267 8.533-8.533 8.533l-256-34.133c-4.267 0-8.533-4.267-4.267-8.533l68.267-68.267-64-64c-4.267-4.267-4.267-8.533 0-12.8l68.267-68.267c4.267-4.267 8.533-4.267 12.8 0l64 64 72.533-72.533c4.267-8.533 8.533-4.267 12.8 0zM512 699.733l-256 34.133c-4.267 0-8.533-4.267-8.533-8.533l34.133-256c0-4.267 4.267-8.533 8.533-4.267l68.267 68.267 64-64c4.267-4.267 8.533-4.267 12.8 0l68.267 68.267c4.267 4.267 4.267 8.533 0 12.8l-59.733 68.267 72.533 72.533c4.267 4.267 0 8.533-4.267 8.533zM554.667 192l256-34.133c4.267 0 8.533 4.267 8.533 8.533l-34.133 256c0 4.267-4.267 8.533-8.533 4.267l-72.533-72.533-64 64c-4.267 4.267-8.533 4.267-12.8 0l-68.267-68.267c-4.267-4.267-4.267-8.533 0-12.8l64-64-72.533-72.533c-4.267-4.267 0-8.533 4.267-8.533z" />
<glyph unicode="&#xe956;" d="M1024 448c0-282.77-229.23-512-512-512s-512 229.23-512 512c0 282.77 229.23 512 512 512s512-229.23 512-512z" />
<glyph unicode="&#xe957;" d="M277.333 422.4l-34.133-256c0-4.267 4.267-8.533 8.533-8.533l256 34.133c4.267 0 8.533 4.267 4.267 8.533l-72.533 72.533 64 64c4.267 4.267 4.267 8.533 0 12.8l-68.267 68.267c-4.267 4.267-8.533 4.267-12.8 0l-64-64-72.533 72.533c-4.267 4.267-4.267 4.267-8.533-4.267zM789.333 465.067l34.133 256c0 4.267-4.267 8.533-8.533 8.533l-256-34.133c-4.267 0-8.533-4.267-4.267-8.533l68.267-68.267-64-64c-4.267-4.267-4.267-8.533 0-12.8l68.267-68.267c4.267-4.267 8.533-4.267 12.8 0l64 64 72.533-72.533c4.267-8.533 8.533-4.267 12.8 0zM512 699.733l-256 34.133c-4.267 0-8.533-4.267-8.533-8.533l34.133-256c0-4.267 4.267-8.533 8.533-4.267l68.267 68.267 64-64c4.267-4.267 8.533-4.267 12.8 0l68.267 68.267c4.267 4.267 4.267 8.533 0 12.8l-59.733 68.267 72.533 72.533c4.267 4.267 0 8.533-4.267 8.533zM554.667 192l256-34.133c4.267 0 8.533 4.267 8.533 8.533l-34.133 256c0 4.267-4.267 8.533-8.533 4.267l-72.533-72.533-64 64c-4.267 4.267-8.533 4.267-12.8 0l-68.267-68.267c-4.267-4.267-4.267-8.533 0-12.8l64-64-72.533-72.533c-4.267-4.267 0-8.533 4.267-8.533z" />
<glyph unicode="&#xe958;" d="M1024 448c0-282.77-229.23-512-512-512s-512 229.23-512 512c0 282.77 229.23 512 512 512s512-229.23 512-512z" />
<glyph unicode="&#xe959;" d="M772.267 729.6h-503.467c-21.333 0-38.4-17.067-38.4-38.4v-503.467c0-21.333 17.067-38.4 38.4-38.4h51.2c0 0 0 0 0 0h452.267c21.333 0 38.4 17.067 38.4 38.4v503.467c-4.267 21.333-17.067 38.4-38.4 38.4zM290.133 307.2v149.333l72.533-72.533-72.533-76.8zM384 213.333l72.533 72.533 72.533-72.533h-145.067zM746.667 226.133c0-8.533-4.267-12.8-12.8-12.8h-183.467l34.133 285.867c0 4.267-4.267 8.533-8.533 8.533l-285.867-38.4v183.467c0 8.533 8.533 17.067 17.067 17.067h426.667c8.533 0 12.8-4.267 12.8-12.8v-430.933z" />
<glyph unicode="&#xe95a;" d="M1024 448c0-282.77-229.23-512-512-512s-512 229.23-512 512c0 282.77 229.23 512 512 512s512-229.23 512-512z" />
<glyph unicode="&#xe95b;" d="M772.267 729.6h-503.467c-21.333 0-38.4-17.067-38.4-38.4v-503.467c0-21.333 17.067-38.4 38.4-38.4h51.2c0 0 0 0 0 0h452.267c21.333 0 38.4 17.067 38.4 38.4v503.467c-4.267 21.333-17.067 38.4-38.4 38.4zM290.133 307.2v149.333l72.533-72.533-72.533-76.8zM384 213.333l72.533 72.533 72.533-72.533h-145.067zM746.667 226.133c0-8.533-4.267-12.8-12.8-12.8h-183.467l34.133 285.867c0 4.267-4.267 8.533-8.533 8.533l-285.867-38.4v183.467c0 8.533 8.533 17.067 17.067 17.067h426.667c8.533 0 12.8-4.267 12.8-12.8v-430.933z" />
<glyph unicode="&#xe95c;" d="M1024 448c0-282.77-229.23-512-512-512s-512 229.23-512 512c0 282.77 229.23 512 512 512s512-229.23 512-512z" />
<glyph unicode="&#xe95d;" d="M251.733 166.4h503.467c21.333 0 38.4 17.067 38.4 38.4v503.467c0 21.333-17.067 38.4-38.4 38.4h-503.467c-21.333 0-38.4-17.067-38.4-38.4v-503.467c4.267-21.333 17.067-38.4 38.4-38.4zM733.867 588.8v-149.333l-72.533 72.533 72.533 76.8zM640 682.667l-72.533-72.533-72.533 72.533h145.067zM277.333 669.867c0 8.533 4.267 12.8 12.8 12.8h183.467l-34.133-285.867c0-4.267 4.267-8.533 8.533-8.533l285.867 38.4v-183.467c0-8.533-8.533-17.067-17.067-17.067h-426.667c-8.533 0-12.8 4.267-12.8 12.8v430.933z" />
<glyph unicode="&#xe95e;" d="M1024 448c0-282.77-229.23-512-512-512s-512 229.23-512 512c0 282.77 229.23 512 512 512s512-229.23 512-512z" />
<glyph unicode="&#xe95f;" d="M251.733 166.4h503.467c21.333 0 38.4 17.067 38.4 38.4v503.467c0 21.333-17.067 38.4-38.4 38.4h-503.467c-21.333 0-38.4-17.067-38.4-38.4v-503.467c4.267-21.333 17.067-38.4 38.4-38.4zM733.867 588.8v-149.333l-72.533 72.533 72.533 76.8zM640 682.667l-72.533-72.533-72.533 72.533h145.067zM277.333 669.867c0 8.533 4.267 12.8 12.8 12.8h183.467l-34.133-285.867c0-4.267 4.267-8.533 8.533-8.533l285.867 38.4v-183.467c0-8.533-8.533-17.067-17.067-17.067h-426.667c-8.533 0-12.8 4.267-12.8 12.8v430.933z" />
<glyph unicode="&#xe960;" glyph-name="add" d="M618.667 341.333h379.733c12.8 0 25.6 12.8 25.6 25.6v157.867c0 12.8-12.8 25.6-25.6 25.6h-379.733v379.733c0 12.8-12.8 25.6-25.6 25.6h-157.867c-17.067 4.267-29.867-8.533-29.867-21.333v-379.733h-379.733c-12.8 0-25.6-12.8-25.6-25.6v-157.867c0-12.8 12.8-25.6 25.6-25.6h379.733v-379.733c0-12.8 12.8-25.6 25.6-25.6h157.867c12.8 0 25.6 12.8 25.6 25.6v375.467z" />
<glyph unicode="&#xe961;" glyph-name="admin-indicator" horiz-adv-x="1101" d="M1058.133 157.867c-34.133 17.067-230.4 136.533-332.8 170.667v179.2c25.6 25.6 42.667 51.2 42.667 102.4v136.533c0 119.467-76.8 213.333-213.333 213.333s-221.867-93.867-221.867-213.333c0 0 0-25.6 0-136.533 0-51.2 17.067-85.333 51.2-102.4v-179.2c-93.867-42.667-307.2-153.6-332.8-170.667-42.667-17.067-51.2-42.667-51.2-85.333 0-17.067 0-110.933 0-110.933 0-17.067 8.533-25.6 25.6-25.6h1058.133c17.067 0 25.6 8.533 25.6 25.6 0 0 0 85.333 0 110.933-8.533 42.667-17.067 68.267-51.2 85.333z" />
<glyph unicode="&#xe962;" glyph-name="advanced-search-2-hov" horiz-adv-x="1062" d="M763.733 908.8c-166.4 0-298.667-132.267-298.667-298.667s132.267-298.667 298.667-298.667 298.667 132.267 298.667 298.667-132.267 298.667-298.667 298.667zM938.667 571.733c0-8.533-4.267-12.8-12.8-12.8h-110.933v-110.933c0-8.533-4.267-12.8-12.8-12.8h-72.533c-8.533 0-12.8 4.267-12.8 12.8v110.933h-110.933c-8.533 0-12.8 4.267-12.8 12.8v72.533c0 8.533 4.267 12.8 12.8 12.8h110.933v110.933c0 8.533 4.267 12.8 12.8 12.8h72.533c8.533 0 12.8-4.267 12.8-12.8v-110.933h110.933c8.533 0 12.8-4.267 12.8-12.8v-72.533zM1015.467 68.267c8.533-8.533 8.533-21.333 0-29.867l-93.867-93.867c-8.533-8.533-21.333-8.533-29.867 0l-256 256c-64-42.667-140.8-68.267-221.867-68.267-230.4 0-413.867 187.733-413.867 413.867s183.467 413.867 413.867 413.867c59.733 0 119.467-12.8 170.667-38.4-42.667-25.6-81.067-59.733-110.933-102.4-17.067 4.267-38.4 4.267-59.733 4.267-157.867 4.267-281.6-119.467-281.6-277.333 0-153.6 128-281.6 281.6-281.6 55.467 0 106.667 17.067 149.333 42.667 59.733-38.4 128-64 204.8-64 21.333 0 46.933 4.267 68.267 8.533l179.2-183.467z" />
<glyph unicode="&#xe963;" glyph-name="advanced-search-2" horiz-adv-x="1062" d="M763.733 908.8c-166.4 0-298.667-132.267-298.667-298.667s132.267-298.667 298.667-298.667 298.667 132.267 298.667 298.667-132.267 298.667-298.667 298.667zM938.667 571.733c0-8.533-4.267-12.8-12.8-12.8h-110.933v-110.933c0-8.533-4.267-12.8-12.8-12.8h-72.533c-8.533 0-12.8 4.267-12.8 12.8v110.933h-110.933c-8.533 0-12.8 4.267-12.8 12.8v72.533c0 8.533 4.267 12.8 12.8 12.8h110.933v110.933c0 8.533 4.267 12.8 12.8 12.8h72.533c8.533 0 12.8-4.267 12.8-12.8v-110.933h110.933c8.533 0 12.8-4.267 12.8-12.8v-72.533zM1015.467 68.267c8.533-8.533 8.533-21.333 0-29.867l-93.867-93.867c-8.533-8.533-21.333-8.533-29.867 0l-256 256c-64-42.667-140.8-68.267-221.867-68.267-230.4 0-413.867 187.733-413.867 413.867s183.467 413.867 413.867 413.867c59.733 0 119.467-12.8 170.667-38.4-42.667-25.6-81.067-59.733-110.933-102.4-17.067 4.267-38.4 4.267-59.733 4.267-157.867 4.267-281.6-119.467-281.6-277.333 0-153.6 128-281.6 281.6-281.6 55.467 0 106.667 17.067 149.333 42.667 59.733-38.4 128-64 204.8-64 21.333 0 46.933 4.267 68.267 8.533l179.2-183.467z" />
<glyph unicode="&#xe964;" glyph-name="all-hov" horiz-adv-x="896" d="M802.133 533.333h-106.667c-51.2 0-89.6-38.4-93.867-85.333h-204.8l-183.467 174.933v38.4c46.933 4.267 85.333 46.933 85.333 93.867v110.933c0 51.2-42.667 93.867-93.867 93.867h-110.933c-51.2 0-93.867-42.667-93.867-93.867v-106.667c0-51.2 38.4-93.867 85.333-98.133v-426.667c-46.933-4.267-85.333-46.933-85.333-93.867v-106.667c0-55.467 42.667-98.133 93.867-98.133h106.667c55.467 0 98.133 42.667 98.133 93.867v106.667c0 51.2-38.4 89.6-85.333 93.867v209.067l110.933-106.667c12.8-12.8 29.867-17.067 42.667-17.067h230.4c4.267-46.933 46.933-85.333 93.867-85.333h106.667c51.2 0 93.867 42.667 93.867 93.867v106.667c4.267 59.733-38.4 102.4-89.6 102.4zM85.333 866.133c0 4.267 4.267 8.533 8.533 8.533h106.667c8.533 0 12.8-4.267 12.8-8.533v-106.667c0-8.533-4.267-12.8-8.533-12.8h-110.933c-4.267 0-8.533 4.267-8.533 8.533v110.933zM213.333 29.867c0-4.267-4.267-8.533-8.533-8.533h-110.933c-4.267 0-8.533 4.267-8.533 8.533v106.667c0 8.533 4.267 12.8 8.533 12.8h106.667c8.533 0 12.8-4.267 12.8-8.533v-110.933zM810.667 328.533c0-4.267-4.267-8.533-8.533-8.533h-106.667c-4.267 0-8.533 4.267-8.533 8.533v106.667c0 4.267 4.267 8.533 8.533 8.533h106.667c4.267 0 8.533-4.267 8.533-8.533v-106.667z" />
<glyph unicode="&#xe965;" glyph-name="all" horiz-adv-x="896" d="M802.133 533.333h-106.667c-51.2 0-89.6-38.4-93.867-85.333h-204.8l-183.467 174.933v38.4c46.933 4.267 85.333 46.933 85.333 93.867v110.933c0 51.2-42.667 93.867-93.867 93.867h-110.933c-51.2 0-93.867-42.667-93.867-93.867v-106.667c0-51.2 38.4-93.867 85.333-98.133v-426.667c-46.933-4.267-85.333-46.933-85.333-93.867v-106.667c0-55.467 42.667-98.133 93.867-98.133h106.667c55.467 0 98.133 42.667 98.133 93.867v106.667c0 51.2-38.4 89.6-85.333 93.867v209.067l110.933-106.667c12.8-12.8 29.867-17.067 42.667-17.067h230.4c4.267-46.933 46.933-85.333 93.867-85.333h106.667c51.2 0 93.867 42.667 93.867 93.867v106.667c4.267 59.733-38.4 102.4-89.6 102.4zM85.333 866.133c0 4.267 4.267 8.533 8.533 8.533h106.667c8.533 0 12.8-4.267 12.8-8.533v-106.667c0-8.533-4.267-12.8-8.533-12.8h-110.933c-4.267 0-8.533 4.267-8.533 8.533v110.933zM213.333 29.867c0-4.267-4.267-8.533-8.533-8.533h-110.933c-4.267 0-8.533 4.267-8.533 8.533v106.667c0 8.533 4.267 12.8 8.533 12.8h106.667c8.533 0 12.8-4.267 12.8-8.533v-110.933zM810.667 328.533c0-4.267-4.267-8.533-8.533-8.533h-106.667c-4.267 0-8.533 4.267-8.533 8.533v106.667c0 4.267 4.267 8.533 8.533 8.533h106.667c4.267 0 8.533-4.267 8.533-8.533v-106.667z" />
<glyph unicode="&#xe966;" glyph-name="bcrumb-back" horiz-adv-x="1434" d="M1433.6-12.8c-122.88 286.72-532.48 276.48-727.040 276.48v-307.2c0-20.48-10.24-20.48-20.48-10.24l-675.84 481.28c-10.24 10.24-10.24 30.72 0 40.96l675.84 491.52c10.24 0 20.48 0 20.48-20.48v-276.48c143.36-10.24 716.8-92.16 727.040-675.84z" />
<glyph unicode="&#xe967;" glyph-name="btn-save" d="M742.4 774.4h-96v185.6h96v-185.6zM838.4 960h-44.8v-230.4h-563.2v230.4h-185.6c-25.6 0-44.8-19.2-44.8-44.8v-928c0-32 19.2-51.2 44.8-51.2h96v467.2h742.4v-467.2h96c25.6 0 44.8 19.2 44.8 44.8v793.6l-185.6 185.6z" />
<glyph unicode="&#xe968;" glyph-name="btn-search-advanced" d="M736 908.8c-160 0-288-134.4-288-300.8s128-300.8 288-300.8 288 134.4 288 300.8c0 166.4-128 300.8-288 300.8zM902.4 569.6c0-6.4-6.4-12.8-12.8-12.8h-102.4v-108.8c0-6.4-6.4-12.8-12.8-12.8h-70.4c-6.4 0-12.8 6.4-12.8 12.8v108.8h-108.8c-6.4 0-12.8 6.4-12.8 12.8v76.8c0 6.4 6.4 12.8 12.8 12.8h108.8v108.8c0 6.4 6.4 12.8 12.8 12.8h64c6.4 0 19.2-6.4 19.2-12.8v-108.8h108.8c6.4 0 12.8-6.4 12.8-12.8l-6.4-76.8zM979.2 64c6.4-6.4 6.4-19.2 0-32l-89.6-96c-6.4-6.4-19.2-6.4-32 0l-249.6 256c-64-44.8-134.4-70.4-211.2-70.4-217.6 6.4-396.8 198.4-396.8 422.4s179.2 416 396.8 416c57.6 0 115.2-12.8 166.4-38.4-38.4-25.6-76.8-57.6-108.8-102.4-12.8 6.4-32 6.4-57.6 6.4-147.2 0-268.8-128-268.8-281.6s121.6-288 268.8-288c51.2 0 102.4 19.2 147.2 44.8 57.6-38.4 121.6-64 198.4-64 19.2 0 44.8 6.4 64 6.4l172.8-179.2z" />
<glyph unicode="&#xe969;" glyph-name="btn-search-mic" horiz-adv-x="666" d="M665.6 595.2c0-12.8-6.4-25.6-19.2-25.6h-19.2v-166.4c0-166.4-115.2-256-198.4-288v-51.2l115.2-57.6v-70.4h-428.8v76.8l115.2 57.6v51.2c-76.8 25.6-198.4 121.6-198.4 288v160h-12.8c-12.8 6.4-19.2 12.8-19.2 25.6s6.4 19.2 19.2 19.2h96v-211.2c0-153.6 115.2-217.6 217.6-217.6s211.2 96 211.2 217.6v217.6h96c19.2 0 25.6-12.8 25.6-25.6zM153.6 428.8v147.2h358.4v-147.2c0-38.4-44.8-172.8-179.2-172.8s-179.2 134.4-179.2 172.8zM198.4 428.8c0-12.8 6.4-57.6 38.4-89.6v32c-19.2 25.6-19.2 51.2-19.2 57.6v102.4h-19.2v-102.4zM512 620.8h-358.4v147.2c0 108.8 76.8 192 179.2 192s179.2-83.2 179.2-192v-147.2zM236.8 870.4c-25.6-25.6-38.4-64-38.4-102.4v-108.8h19.2v108.8c0 25.6 6.4 51.2 19.2 76.8v25.6z" />
<glyph unicode="&#xe96a;" glyph-name="btn-search" horiz-adv-x="973" d="M966.4 64l-243.2 256c38.4 64 64 140.8 64 224 0 230.4-179.2 416-396.8 416-211.2 0-390.4-185.6-390.4-416s179.2-416 390.4-416c76.8 0 153.6 25.6 211.2 64l243.2-256c6.4-6.4 19.2-6.4 32 0l89.6 96c12.8 12.8 12.8 25.6 0 32zM128 544c0 160 115.2 281.6 262.4 281.6s268.8-128 268.8-281.6c0-153.6-121.6-281.6-268.8-281.6s-262.4 128-262.4 281.6z" />
<glyph unicode="&#xe96b;" glyph-name="cart-2-hov" horiz-adv-x="1135" d="M1092.267 960h-110.933c-21.333 0-38.4-12.8-42.667-34.133l-34.133-145.067h-861.867c-12.8 0-25.6-4.267-34.133-17.067-8.533-8.533-8.533-21.333-8.533-34.133l89.6-401.067c4.267-21.333 21.333-34.133 42.667-34.133h652.8l-42.667-179.2h-541.867c-25.6 0-42.667-21.333-42.667-42.667 0-25.6 21.333-42.667 42.667-42.667h46.933c-4.267-8.533-4.267-12.8-4.267-21.333 0-38.4 29.867-68.267 68.267-68.267s68.267 29.867 68.267 68.267c0 8.533 0 17.067-4.267 21.333h230.4c-4.267-8.533-4.267-12.8-4.267-21.333 0-38.4 29.867-68.267 68.267-68.267s68.267 29.867 68.267 68.267c0 8.533 0 17.067-4.267 21.333h46.933c21.333 0 38.4 21.333 42.667 42.667v0l192 802.133h76.8c25.6 0 42.667 21.333 42.667 42.667s-21.333 42.667-42.667 42.667zM157.867 469.333h-8.533l-8.533 42.667h17.067v-42.667zM157.867 558.933h-29.867l-8.533 42.667h34.133v-42.667zM157.867 648.533h-46.933l-8.533 42.667h55.467v-42.667zM243.2 379.733h-42.667v42.667h42.667v-42.667zM243.2 469.333h-42.667v42.667h42.667v-42.667zM243.2 558.933h-42.667v42.667h42.667v-42.667zM243.2 648.533h-42.667v42.667h42.667v-42.667zM332.8 379.733h-42.667v42.667h42.667v-42.667zM332.8 469.333h-42.667v42.667h42.667v-42.667zM332.8 558.933h-42.667v42.667h42.667v-42.667zM332.8 648.533h-42.667v42.667h42.667v-42.667zM422.4 379.733h-42.667v42.667h42.667v-42.667zM422.4 469.333h-42.667v42.667h42.667v-42.667zM422.4 558.933h-42.667v42.667h42.667v-42.667zM422.4 648.533h-42.667v42.667h42.667v-42.667zM512 379.733h-42.667v42.667h42.667v-42.667zM512 469.333h-42.667v42.667h42.667v-42.667zM512 558.933h-42.667v42.667h42.667v-42.667zM512 648.533h-42.667v42.667h42.667v-42.667zM601.6 379.733h-42.667v42.667h42.667v-42.667zM601.6 469.333h-42.667v42.667h42.667v-42.667zM601.6 558.933h-42.667v42.667h42.667v-42.667zM601.6 648.533h-42.667v42.667h42.667v-42.667zM691.2 379.733h-42.667v42.667h42.667v-42.667zM691.2 469.333h-42.667v42.667h42.667v-42.667zM691.2 558.933h-42.667v42.667h42.667v-42.667zM691.2 648.533h-42.667v42.667h42.667v-42.667zM780.8 379.733h-42.667v42.667h42.667v-42.667zM780.8 469.333h-42.667v42.667h42.667v-42.667zM780.8 558.933h-42.667v42.667h42.667v-42.667zM780.8 648.533h-42.667v42.667h42.667v-42.667zM827.733 469.333h-4.267v42.667h17.067l-12.8-42.667zM849.067 558.933h-25.6v42.667h34.133l-8.533-42.667zM870.4 648.533h-46.933v42.667h55.467l-8.533-42.667z" />
<glyph unicode="&#xe96c;" glyph-name="cart-2" horiz-adv-x="1135" d="M1092.267 960h-110.933c-21.333 0-38.4-12.8-42.667-34.133l-34.133-145.067h-861.867c-12.8 0-25.6-4.267-34.133-17.067-8.533-8.533-8.533-21.333-8.533-34.133l89.6-401.067c4.267-21.333 21.333-34.133 42.667-34.133h652.8l-42.667-179.2h-541.867c-25.6 0-42.667-21.333-42.667-42.667 0-25.6 21.333-42.667 42.667-42.667h46.933c-4.267-8.533-4.267-12.8-4.267-21.333 0-38.4 29.867-68.267 68.267-68.267s68.267 29.867 68.267 68.267c0 8.533 0 17.067-4.267 21.333h230.4c-4.267-8.533-4.267-12.8-4.267-21.333 0-38.4 29.867-68.267 68.267-68.267s68.267 29.867 68.267 68.267c0 8.533 0 17.067-4.267 21.333h46.933c21.333 0 38.4 21.333 42.667 42.667v0l192 802.133h76.8c25.6 0 42.667 21.333 42.667 42.667s-21.333 42.667-42.667 42.667zM157.867 469.333h-8.533l-8.533 42.667h17.067v-42.667zM157.867 558.933h-29.867l-8.533 42.667h34.133v-42.667zM157.867 648.533h-46.933l-8.533 42.667h55.467v-42.667zM243.2 379.733h-42.667v42.667h42.667v-42.667zM243.2 469.333h-42.667v42.667h42.667v-42.667zM243.2 558.933h-42.667v42.667h42.667v-42.667zM243.2 648.533h-42.667v42.667h42.667v-42.667zM332.8 379.733h-42.667v42.667h42.667v-42.667zM332.8 469.333h-42.667v42.667h42.667v-42.667zM332.8 558.933h-42.667v42.667h42.667v-42.667zM332.8 648.533h-42.667v42.667h42.667v-42.667zM422.4 379.733h-42.667v42.667h42.667v-42.667zM422.4 469.333h-42.667v42.667h42.667v-42.667zM422.4 558.933h-42.667v42.667h42.667v-42.667zM422.4 648.533h-42.667v42.667h42.667v-42.667zM512 379.733h-42.667v42.667h42.667v-42.667zM512 469.333h-42.667v42.667h42.667v-42.667zM512 558.933h-42.667v42.667h42.667v-42.667zM512 648.533h-42.667v42.667h42.667v-42.667zM601.6 379.733h-42.667v42.667h42.667v-42.667zM601.6 469.333h-42.667v42.667h42.667v-42.667zM601.6 558.933h-42.667v42.667h42.667v-42.667zM601.6 648.533h-42.667v42.667h42.667v-42.667zM691.2 379.733h-42.667v42.667h42.667v-42.667zM691.2 469.333h-42.667v42.667h42.667v-42.667zM691.2 558.933h-42.667v42.667h42.667v-42.667zM691.2 648.533h-42.667v42.667h42.667v-42.667zM780.8 379.733h-42.667v42.667h42.667v-42.667zM780.8 469.333h-42.667v42.667h42.667v-42.667zM780.8 558.933h-42.667v42.667h42.667v-42.667zM780.8 648.533h-42.667v42.667h42.667v-42.667zM827.733 469.333h-4.267v42.667h17.067l-12.8-42.667zM849.067 558.933h-25.6v42.667h34.133l-8.533-42.667zM870.4 648.533h-46.933v42.667h55.467l-8.533-42.667z" />
<glyph unicode="&#xe96d;" glyph-name="collaborate" horiz-adv-x="1630" d="M1352.533 68.267c0-51.2 0-115.2 0-115.2 0-8.533-4.267-17.067-12.8-17.067h-1049.6c-8.533 0-12.8 8.533-12.8 17.067 0 0 0 68.267 0 115.2s8.533 68.267 46.933 89.6c29.867 17.067 230.4 132.267 324.267 174.933v174.933c-29.867 21.333-46.933 55.467-46.933 102.4 0 115.2 0 140.8 0 140.8 0 115.2 68.267 209.067 209.067 209.067s213.333-93.867 213.333-209.067v-140.8c0-51.2-17.067-81.067-46.933-102.4v-174.933c102.4-42.667 294.4-157.867 324.267-174.933 38.4-21.333 51.2-42.667 51.2-89.6zM290.133 217.6l8.533 4.267c106.667 59.733 192 106.667 256 136.533-29.867 12.8-59.733 25.6-85.333 34.133v123.733c42.667 17.067 42.667 42.667 42.667 76.8v81.067c0 81.067-42.667 145.067-140.8 145.067s-140.8-64-140.8-145.067c0 0 0 0 0-81.067 0-34.133 0-59.733 46.933-72.533v-123.733c-89.6-29.867-213.333-106.667-234.667-119.467-25.6-12.8-42.667-29.867-42.667-64s0-81.067 0-81.067c0-4.267 4.267-12.8 8.533-12.8h204.8c8.533 38.4 29.867 72.533 76.8 98.133zM1587.2 277.333c-21.333 12.8-145.067 93.867-238.933 119.467v123.733c46.933 12.8 46.933 38.4 46.933 72.533v81.067c0 81.067-42.667 145.067-140.8 145.067s-140.8-64-140.8-145.067c0 0 0 0 0-81.067 0-34.133 0-59.733 46.933-72.533v-123.733c-25.6-8.533-55.467-21.333-85.333-34.133 89.6-42.667 196.267-106.667 243.2-132.267l17.067-8.533c46.933-25.6 68.267-59.733 76.8-98.133h209.067c4.267 0 8.533 4.267 8.533 12.8 0 0 0 46.933 0 81.067 0 29.867-17.067 42.667-42.667 59.733z" />
<glyph unicode="&#xe96e;" glyph-name="delete-filter" d="M691.2 456.533l298.667 324.267c8.533 17.067 8.533 34.133 0 42.667l-145.067 128c-17.067 8.533-34.133 8.533-51.2 0l-290.133-324.267-324.267 290.133c-8.533 8.533-34.133 8.533-42.667 0l-128-136.533c-8.533-17.067-8.533-34.133 0-51.2l324.267-298.667-290.133-315.733c-8.533-8.533-8.533-34.133 0-42.667l136.533-128c8.533-8.533 34.133-8.533 42.667 0l298.667 324.267 324.267-290.133c8.533-8.533 34.133-8.533 42.667 0l128 136.533c8.533 8.533 8.533 34.133 0 42.667l-324.267 298.667z" />
<glyph unicode="&#xe96f;" glyph-name="delete" d="M695.467 448l320 320c12.8 12.8 12.8 34.133 0 46.933l-136.533 136.533c-12.8 12.8-34.133 12.8-46.933 0l-320-324.267-320 324.267c-12.8 12.8-34.133 12.8-46.933 0l-136.533-136.533c-12.8-12.8-12.8-34.133 0-46.933l324.267-320-320-320c-12.8-12.8-12.8-34.133 0-46.933l136.533-136.533c12.8-12.8 34.133-12.8 46.933 0l320 320 320-320c12.8-12.8 34.133-12.8 46.933 0l136.533 136.533c12.8 12.8 12.8 34.133 0 46.933l-324.267 320z" />
<glyph unicode="&#xe970;" glyph-name="doc-hov" horiz-adv-x="811" d="M810.667 661.333v-704c0-12.8-8.533-21.333-21.333-21.333h-768c-12.8 0-21.333 8.533-21.333 21.333v981.333c0 12.8 8.533 21.333 21.333 21.333h490.667v-277.333c0-12.8 8.533-21.333 21.333-21.333h277.333zM554.667 960v-234.667c0-12.8 8.533-21.333 21.333-21.333h234.667l-256 256zM691.2 541.867h-576v-89.6h576v89.6zM691.2 345.6h-576v-89.6h576v89.6zM691.2 149.333h-576v-89.6h576v89.6z" />
<glyph unicode="&#xe971;" glyph-name="doc" horiz-adv-x="811" d="M810.667 661.333v-704c0-12.8-8.533-21.333-21.333-21.333h-768c-12.8 0-21.333 8.533-21.333 21.333v981.333c0 12.8 8.533 21.333 21.333 21.333h490.667v-277.333c0-12.8 8.533-21.333 21.333-21.333h277.333zM554.667 960v-234.667c0-12.8 8.533-21.333 21.333-21.333h234.667l-256 256zM691.2 541.867h-576v-89.6h576v89.6zM691.2 345.6h-576v-89.6h576v89.6zM691.2 149.333h-576v-89.6h576v89.6z" />
<glyph unicode="&#xe972;" glyph-name="done" horiz-adv-x="1280" d="M1271.467 772.267c8.533-8.533 8.533-25.6 0-42.667l-793.6-793.6c-8.533-8.533-25.6-8.533-42.667 0l-170.667 187.733c-17.067 8.533-34.133 25.6-42.667 34.133l-213.333 213.333c-8.533 17.067-8.533 34.133 0 42.667l179.2 179.2c8.533 8.533 25.6 8.533 42.667 0l213.333-213.333c8.533-17.067 25.6-17.067 34.133 0l571.733 571.733c8.533 8.533 25.6 8.533 42.667 0l179.2-179.2z" />
</font>
</defs>
</svg>
